RisingSun-LightItalic.ufo
<glyph name="exclam" format="2">
  <advance width="224"/>
  <unicode hex="0021"/>
  <outline>
    <contour>
      <point x="10" y="29" type="curve" smooth="yes"/>
      <point x="6" y="10"/>
      <point x="18" y="-5"/>
      <point x="37" y="-5" type="curve" smooth="yes"/>
      <point x="56" y="-5"/>
      <point x="74" y="10"/>
      <point x="78" y="29" type="curve" smooth="yes"/>
      <point x="82" y="47"/>
      <point x="71" y="62"/>
      <point x="52" y="62" type="curve" smooth="yes"/>
      <point x="33" y="62"/>
      <point x="14" y="47"/>
    </contour>
    <contour>
      <point x="91" y="200" type="line"/>
      <point x="134" y="400" type="line"/>
      <point x="201" y="717" type="line"/>
      <point x="181" y="717" type="line"/>
      <point x="114" y="400" type="line"/>
      <point x="71" y="200" type="line"/>
    </contour>
  </outline>
</glyph>
<glyph name="quotedbl" format="2">
  <advance width="332"/>
  <unicode hex="0022"/>
  <outline>
    <contour>
      <point x="156" y="565" type="line"/>
      <point x="180" y="565" type="line"/>
      <point x="244" y="710" type="line"/>
      <point x="208" y="710" type="line"/>
    </contour>
    <contour>
      <point x="222" y="565" type="line"/>
      <point x="246" y="565" type="line"/>
      <point x="310" y="710" type="line"/>
      <point x="274" y="710" type="line"/>
    </contour>
  </outline>
</glyph>
<glyph name="quotesingle" format="2">
  <advance width="166"/>
  <unicode hex="0027"/>
  <outline>
    <contour>
      <point x="130.094" y="565" type="line"/>
      <point x="193.915" y="710" type="line"/>
      <point x="157.915" y="710" type="line"/>
      <point x="106.094" y="565" type="line"/>
    </contour>
  </outline>
</glyph>
<glyph name="comma" format="2">
  <advance width="260"/>
  <unicode hex="002C"/>
  <outline>
    <contour>
      <point x="77.991" y="-160" type="line"/>
      <point x="180.256" y="100" type="line"/>
      <point x="144.256" y="100" type="line"/>
      <point x="53.991" y="-160" type="line"/>
    </contour>
  </outline>
</glyph>
<glyph name="period" format="2">
  <advance width="158"/>
  <unicode hex="002E"/>
  <outline>
    <contour>
      <point x="44.1641" y="29" type="curve" smooth="yes"/>
      <point x="40.1256" y="10"/>
      <point x="51.9372" y="-5"/>
      <point x="70.9372" y="-5" type="curve" smooth="yes"/>
      <point x="89.9372" y="-5"/>
      <point x="108.126" y="10"/>
      <point x="112.164" y="29" type="curve" smooth="yes"/>
      <point x="115.99" y="47"/>
      <point x="104.179" y="62"/>
      <point x="85.1785" y="62" type="curve" smooth="yes"/>
      <point x="66.1785" y="62"/>
      <point x="47.9902" y="47"/>
    </contour>
  </outline>
</glyph>
<glyph name="one" format="2">
  <advance width="327"/>
  <unicode hex="0031"/>
  <outline>
    <contour>
      <point x="123" y="0" type="line"/>
      <point x="143" y="0" type="line"/>
      <point x="296" y="720" type="line"/>
      <point x="275" y="720" type="line"/>
      <point x="273" y="716"/>
      <point x="173" y="621"/>
      <point x="107" y="621" type="curve"/>
      <point x="103" y="601" type="line"/>
      <point x="154" y="601"/>
      <point x="241" y="656"/>
      <point x="268" y="687" type="curve"/>
    </contour>
  </outline>
</glyph>
<glyph name="three" format="2">
  <advance width="490"/>
  <unicode hex="0033"/>
  <outline>
    <contour>
      <point x="182" y="-9" type="curve" smooth="yes"/>
      <point x="318" y="-9"/>
      <point x="430" y="90"/>
      <point x="430" y="225" type="curve" smooth="yes"/>
      <point x="430" y="303"/>
      <point x="388" y="363"/>
      <point x="315" y="374" type="curve"/>
      <point x="440" y="387"/>
      <point x="491" y="466"/>
      <point x="491" y="565" type="curve" smooth="yes"/>
      <point x="491" y="651"/>
      <point x="430" y="714"/>
      <point x="335" y="714" type="curve" smooth="yes"/>
      <point x="248" y="714"/>
      <point x="163" y="664"/>
      <point x="121" y="588" type="curve"/>
      <point x="137" y="581" type="line"/>
      <point x="177" y="649"/>
      <point x="251" y="694"/>
      <point x="331" y="694" type="curve" smooth="yes"/>
      <point x="415" y="694"/>
      <point x="470" y="640"/>
      <point x="470" y="560" type="curve" smooth="yes"/>
      <point x="470" y="453"/>
      <point x="393" y="385"/>
      <point x="263" y="385" type="curve" smooth="yes"/>
      <point x="183" y="385" type="line"/>
      <point x="179" y="365" type="line"/>
      <point x="258" y="365" type="line" smooth="yes"/>
      <point x="356" y="365"/>
      <point x="411" y="311"/>
      <point x="411" y="226" type="curve" smooth="yes"/>
      <point x="411" y="101"/>
      <point x="316" y="11"/>
      <point x="188" y="11" type="curve" smooth="yes"/>
      <point x="100" y="11"/>
      <point x="38" y="57"/>
      <point x="31" y="126" type="curve"/>
      <point x="11" y="119" type="line"/>
      <point x="21" y="41"/>
      <point x="88" y="-9"/>
    </contour>
  </outline>
</glyph>
<glyph name="six" format="2">
  <advance width="581"/>
  <unicode hex="0036"/>
  <outline>
    <contour>
      <point x="239" y="-10" type="curve" smooth="yes"/>
      <point x="127" y="-10"/>
      <point x="51" y="71"/>
      <point x="51" y="202" type="curve" smooth="yes"/>
      <point x="51" y="461"/>
      <point x="191" y="715"/>
      <point x="395" y="715" type="curve" smooth="yes"/>
      <point x="487" y="715"/>
      <point x="551" y="658"/>
      <point x="559" y="568" type="curve"/>
      <point x="539" y="561" type="line"/>
      <point x="532" y="641"/>
      <point x="473" y="695"/>
      <point x="391" y="695" type="curve" smooth="yes"/>
      <point x="243" y="695"/>
      <point x="121" y="536"/>
      <point x="79" y="308" type="curve"/>
      <point x="129" y="412"/>
      <point x="238" y="475"/>
      <point x="346" y="475" type="curve" smooth="yes"/>
      <point x="456" y="475"/>
      <point x="530" y="387"/>
      <point x="530" y="276" type="curve" smooth="yes"/>
      <point x="530" y="122"/>
      <point x="387" y="-10"/>
    </contour>
    <contour>
      <point x="245" y="10" type="curve" smooth="yes"/>
      <point x="377" y="10"/>
      <point x="509" y="131"/>
      <point x="509" y="270" type="curve" smooth="yes"/>
      <point x="509" y="372"/>
      <point x="438" y="455"/>
      <point x="338" y="455" type="curve" smooth="yes"/>
      <point x="206" y="455"/>
      <point x="73" y="331"/>
      <point x="73" y="194" type="curve" smooth="yes"/>
      <point x="73" y="92"/>
      <point x="144" y="10"/>
    </contour>
  </outline>
</glyph>
<glyph name="seven" format="2">
  <advance width="463"/>
  <unicode hex="0037"/>
  <outline>
    <contour>
      <point x="23" y="0" type="line"/>
      <point x="46" y="0" type="line"/>
      <point x="543" y="710" type="line"/>
      <point x="105" y="710" type="line"/>
      <point x="101" y="690" type="line"/>
      <point x="505" y="690" type="line"/>
    </contour>
  </outline>
</glyph>
<glyph name="nine" format="2">
  <advance width="565"/>
  <unicode hex="0039"/>
  <outline>
    <contour>
      <point x="213" y="-7" type="curve" smooth="yes"/>
      <point x="121" y="-7"/>
      <point x="57" y="50"/>
      <point x="49" y="140" type="curve"/>
      <point x="69" y="147" type="line"/>
      <point x="76" y="67"/>
      <point x="135" y="13"/>
      <point x="217" y="13" type="curve" smooth="yes"/>
      <point x="365" y="13"/>
      <point x="487" y="172"/>
      <point x="529" y="400" type="curve"/>
      <point x="479" y="296"/>
      <point x="370" y="233"/>
      <point x="262" y="233" type="curve" smooth="yes"/>
      <point x="152" y="233"/>
      <point x="78" y="321"/>
      <point x="78" y="432" type="curve" smooth="yes"/>
      <point x="78" y="586"/>
      <point x="221" y="718"/>
      <point x="369" y="718" type="curve" smooth="yes"/>
      <point x="481" y="718"/>
      <point x="557" y="637"/>
      <point x="557" y="506" type="curve" smooth="yes"/>
      <point x="557" y="247"/>
      <point x="417" y="-7"/>
    </contour>
    <contour>
      <point x="270" y="253" type="curve" smooth="yes"/>
      <point x="402" y="253"/>
      <point x="535" y="377"/>
      <point x="535" y="514" type="curve" smooth="yes"/>
      <point x="535" y="616"/>
      <point x="464" y="698"/>
      <point x="363" y="698" type="curve" smooth="yes"/>
      <point x="231" y="698"/>
      <point x="99" y="577"/>
      <point x="99" y="438" type="curve" smooth="yes"/>
      <point x="99" y="336"/>
      <point x="170" y="253"/>
    </contour>
  </outline>
</glyph>
<glyph name="question" format="2">
  <advance width="449"/>
  <unicode hex="003F"/>
  <outline>
    <contour>
      <point x="162" y="179" type="line"/>
      <point x="187" y="297"/>
      <point x="222" y="324"/>
      <point x="268" y="347" type="curve" smooth="yes"/>
      <point x="345" y="386"/>
      <point x="434" y="411"/>
      <point x="459" y="532" type="curve" smooth="yes"/>
      <point x="485" y="655"/>
      <point x="413" y="719"/>
      <point x="320" y="719" type="curve" smooth="yes"/>
      <point x="240" y="719"/>
      <point x="146" y="673"/>
      <point x="92" y="590" type="curve"/>
      <point x="108" y="582" type="line"/>
      <point x="156" y="654"/>
      <point x="239" y="699"/>
      <point x="316" y="699" type="curve" smooth="yes"/>
      <point x="397" y="699"/>
      <point x="465" y="649"/>
      <point x="441" y="535" type="curve" smooth="yes"/>
      <point x="416" y="420"/>
      <point x="332" y="399"/>
      <point x="265" y="366" type="curve" smooth="yes"/>
      <point x="212" y="340"/>
      <point x="170" y="307"/>
      <point x="142" y="179" type="curve"/>
    </contour>
    <contour>
      <point x="87" y="29" type="curve" smooth="yes"/>
      <point x="83" y="10"/>
      <point x="95" y="-5"/>
      <point x="113" y="-5" type="curve" smooth="yes"/>
      <point x="131" y="-5"/>
      <point x="149" y="10"/>
      <point x="153" y="29" type="curve" smooth="yes"/>
      <point x="157" y="47"/>
      <point x="145" y="62"/>
      <point x="127" y="62" type="curve" smooth="yes"/>
      <point x="109" y="62"/>
      <point x="91" y="47"/>
    </contour>
  </outline>
</glyph>
<glyph name="G" format="2">
  <advance width="722"/>
  <unicode hex="0047"/>
  <outline>
    <contour>
      <point x="300" y="-5" type="curve" smooth="yes"/>
      <point x="403" y="-5"/>
      <point x="524" y="47"/>
      <point x="606" y="115" type="curve"/>
      <point x="651" y="329" type="line"/>
      <point x="394" y="329" type="line"/>
      <point x="390" y="309" type="line"/>
      <point x="626" y="309" type="line"/>
      <point x="586" y="124" type="line"/>
      <point x="508" y="64"/>
      <point x="409" y="15"/>
      <point x="306" y="15" type="curve" smooth="yes"/>
      <point x="133" y="15"/>
      <point x="42" y="179"/>
      <point x="79" y="353" type="curve" smooth="yes"/>
      <point x="115" y="523"/>
      <point x="273" y="695"/>
      <point x="449" y="695" type="curve" smooth="yes"/>
      <point x="555" y="695"/>
      <point x="630" y="633"/>
      <point x="664" y="544" type="curve"/>
      <point x="681" y="558" type="line"/>
      <point x="645" y="649"/>
      <point x="567" y="715"/>
      <point x="455" y="715" type="curve" smooth="yes"/>
      <point x="275" y="715"/>
      <point x="101" y="544"/>
      <point x="61" y="356" type="curve" smooth="yes"/>
      <point x="22" y="172"/>
      <point x="116" y="-5"/>
    </contour>
  </outline>
</glyph>
<glyph name="J" format="2">
  <advance width="503"/>
  <unicode hex="004A"/>
  <anchor x="428" y="708" name="m.uni0302"/>
  <anchor x="0" y="0" name="m.uni031B_1"/>
  <anchor x="0" y="0" name="b.uni0326_2"/>
  <anchor x="0" y="0" name="b.uni0328_3"/>
  <anchor x="0" y="0" name="b.uni0335_4"/>
  <outline>
    <contour>
      <point x="14" y="102" type="line"/>
      <point x="38" y="50"/>
      <point x="93" y="14"/>
      <point x="149" y="14" type="curve" smooth="yes"/>
      <point x="270" y="14"/>
      <point x="346" y="105"/>
      <point x="368" y="217" type="curve" smooth="yes"/>
      <point x="465" y="710" type="line"/>
      <point x="485" y="710" type="line"/>
      <point x="386" y="207" type="line" smooth="yes"/>
      <point x="362" y="84"/>
      <point x="275" y="-5"/>
      <point x="145" y="-5" type="curve" smooth="yes"/>
      <point x="84" y="-5"/>
      <point x="20" y="36"/>
      <point x="-4" y="93" type="curve"/>
    </contour>
  </outline>
</glyph>
<glyph name="Q" format="2">
  <advance width="726"/>
  <unicode hex="0051"/>
  <anchor x="300" y="0" name="bottom"/>
  <anchor x="363" y="355" name="center"/>
  <anchor x="329" y="0" name="ogonek"/>
  <anchor x="460" y="707" name="top"/>
  <anchor x="20" y="710" name="topleft"/>
  <anchor x="566" y="672" name="topright"/>
  <outline>
    <contour>
      <point x="305" y="-5" type="curve" smooth="yes"/>
      <point x="517" y="-5"/>
      <point x="697" y="194"/>
      <point x="697" y="424" type="curve" smooth="yes"/>
      <point x="697" y="572"/>
      <point x="622" y="715"/>
      <point x="443" y="715" type="curve" smooth="yes"/>
      <point x="232" y="715"/>
      <point x="52" y="515"/>
      <point x="52" y="284" type="curve" smooth="yes"/>
      <point x="52" y="135"/>
      <point x="127" y="-5"/>
    </contour>
    <contour>
      <point x="308" y="15" type="curve" smooth="yes"/>
      <point x="142" y="15"/>
      <point x="72" y="143"/>
      <point x="72" y="285" type="curve" smooth="yes"/>
      <point x="72" y="494"/>
      <point x="234" y="695"/>
      <point x="441" y="695" type="curve" smooth="yes"/>
      <point x="607" y="695"/>
      <point x="677" y="566"/>
      <point x="677" y="424" type="curve" smooth="yes"/>
      <point x="677" y="217"/>
      <point x="517" y="15"/>
    </contour>
    <contour>
      <point x="620" y="-7" type="line"/>
      <point x="636" y="7" type="line"/>
      <point x="407" y="285" type="line"/>
      <point x="391" y="271" type="line"/>
    </contour>
  </outline>
</glyph>
<glyph name="y" format="2">
  <advance width="487"/>
  <unicode hex="0079"/>
  <anchor x="302" y="519" name="top"/>
  <outline>
    <contour>
      <point x="172" y="0" type="line"/>
      <point x="129" y="-71"/>
      <point x="86" y="-142"/>
      <point x="43" y="-213" type="curve"/>
      <point x="61" y="-213" type="line"/>
      <point x="519" y="519" type="line"/>
      <point x="498" y="519" type="line"/>
      <point x="187" y="25" type="line"/>
      <point x="75" y="519" type="line"/>
      <point x="54" y="519" type="line"/>
    </contour>
  </outline>
</glyph>
<glyph name="exclamdown" format="2">
  <advance width="224"/>
  <unicode hex="00A1"/>
  <outline>
    <contour>
      <point x="214" y="490" type="curve" smooth="yes"/>
      <point x="218" y="509"/>
      <point x="206" y="524"/>
      <point x="187" y="524" type="curve" smooth="yes"/>
      <point x="168" y="524"/>
      <point x="150" y="509"/>
      <point x="146" y="490" type="curve" smooth="yes"/>
      <point x="142" y="472"/>
      <point x="153" y="457"/>
      <point x="172" y="457" type="curve" smooth="yes"/>
      <point x="191" y="457"/>
      <point x="210" y="472"/>
    </contour>
    <contour>
      <point x="133" y="319" type="line"/>
      <point x="90" y="119" type="line"/>
      <point x="23" y="-198" type="line"/>
      <point x="43" y="-198" type="line"/>
      <point x="110" y="119" type="line"/>
      <point x="153" y="319" type="line"/>
    </contour>
  </outline>
</glyph>
<glyph name="brokenbar" format="2">
  <advance width="248"/>
  <unicode hex="00A6"/>
  <outline>
    <contour>
      <point x="119" y="285" type="line"/>
      <point x="119" y="-130" type="line"/>
      <point x="139" y="-130" type="line"/>
      <point x="139" y="285" type="line"/>
    </contour>
    <contour>
      <point x="119" y="775" type="line"/>
      <point x="119" y="360" type="line"/>
      <point x="139" y="360" type="line"/>
      <point x="139" y="775" type="line"/>
    </contour>
  </outline>
</glyph>
<glyph name="Idieresis" format="2">
  <advance width="214"/>
  <unicode hex="00CF"/>
  <anchor x="193" y="707" name="_top"/>
  <anchor x="238" y="918" name="top"/>
  <outline>
    <component base="I"/>
    <contour>
      <point x="176" y="841" type="line"/>
      <point x="192" y="918" type="line"/>
      <point x="172" y="918" type="line"/>
      <point x="156" y="841" type="line"/>
    </contour>
    <contour>
      <point x="287" y="841" type="line"/>
      <point x="303" y="918" type="line"/>
      <point x="283" y="918" type="line"/>
      <point x="267" y="841" type="line"/>
    </contour>
  </outline>
</glyph>
<glyph name="ae" format="2">
  <advance width="957"/>
  <unicode hex="00E6"/>
  <anchor x="656" y="0" name="bottom"/>
  <anchor x="679" y="0" name="ogonek"/>
  <anchor x="534" y="519" name="top"/>
  <outline>
    <contour>
      <point x="214" y="-10" type="curve" smooth="yes"/>
      <point x="300" y="-10"/>
      <point x="384" y="44"/>
      <point x="441" y="119" type="curve"/>
      <point x="415" y="0" type="line"/>
      <point x="435" y="0" type="line"/>
      <point x="460" y="119" type="line"/>
      <point x="490" y="268" type="line"/>
      <point x="519" y="396" type="line"/>
      <point x="545" y="517" type="line"/>
      <point x="525" y="517" type="line"/>
      <point x="500" y="397" type="line"/>
      <point x="476" y="471"/>
      <point x="417" y="527"/>
      <point x="328" y="527" type="curve" smooth="yes"/>
      <point x="181" y="527"/>
      <point x="30" y="374"/>
      <point x="30" y="208" type="curve" smooth="yes"/>
      <point x="30" y="95"/>
      <point x="97" y="-10"/>
    </contour>
    <contour>
      <point x="219" y="10" type="curve" smooth="yes"/>
      <point x="113" y="10"/>
      <point x="50" y="103"/>
      <point x="50" y="210" type="curve" smooth="yes"/>
      <point x="50" y="347"/>
      <point x="177" y="507"/>
      <point x="324" y="507" type="curve" smooth="yes"/>
      <point x="415" y="507"/>
      <point x="477" y="439"/>
      <point x="490" y="351" type="curve"/>
      <point x="451" y="167" type="line"/>
      <point x="402" y="82"/>
      <point x="315" y="10"/>
    </contour>
    <contour>
      <point x="656" y="-10" type="curve" smooth="yes"/>
      <point x="746" y="-10"/>
      <point x="836" y="42"/>
      <point x="881" y="122" type="curve"/>
      <point x="862" y="128" type="line"/>
      <point x="823" y="56"/>
      <point x="736" y="10"/>
      <point x="663" y="10" type="curve" smooth="yes"/>
      <point x="548" y="10"/>
      <point x="488" y="102"/>
      <point x="488" y="211" type="curve" smooth="yes"/>
      <point x="488" y="360"/>
      <point x="611" y="507"/>
      <point x="764" y="507" type="curve" smooth="yes"/>
      <point x="823" y="507"/>
      <point x="901" y="472"/>
      <point x="901" y="391" type="curve" smooth="yes"/>
      <point x="901" y="319"/>
      <point x="840" y="268"/>
      <point x="663" y="268" type="curve" smooth="yes"/>
      <point x="612" y="268"/>
      <point x="561" y="270"/>
      <point x="493" y="274" type="curve"/>
      <point x="473" y="255" type="line"/>
      <point x="549" y="250"/>
      <point x="605" y="248"/>
      <point x="660" y="248" type="curve" smooth="yes"/>
      <point x="836" y="248"/>
      <point x="922" y="297"/>
      <point x="922" y="390" type="curve" smooth="yes"/>
      <point x="922" y="480"/>
      <point x="837" y="527"/>
      <point x="769" y="527" type="curve" smooth="yes"/>
      <point x="597" y="527"/>
      <point x="467" y="368"/>
      <point x="467" y="210" type="curve" smooth="yes"/>
      <point x="467" y="90"/>
      <point x="537" y="-10"/>
    </contour>
  </outline>
</glyph>
<glyph name="idieresis" format="2">
  <advance width="188"/>
  <unicode hex="00EF"/>
  <anchor x="58" y="519" name="_top"/>
  <anchor x="101" y="720" name="top"/>
  <outline>
    <component base="dotlessi"/>
    <contour>
      <point x="86" y="689" type="curve" smooth="yes"/>
      <point x="82" y="670"/>
      <point x="94" y="655"/>
      <point x="113" y="655" type="curve" smooth="yes"/>
      <point x="132" y="655"/>
      <point x="150" y="670"/>
      <point x="154" y="689" type="curve" smooth="yes"/>
      <point x="158" y="707"/>
      <point x="146" y="722"/>
      <point x="127" y="722" type="curve" smooth="yes"/>
      <point x="108" y="722"/>
      <point x="90" y="707"/>
    </contour>
    <contour>
      <point x="200" y="689" type="curve" smooth="yes"/>
      <point x="196" y="670"/>
      <point x="208" y="655"/>
      <point x="227" y="655" type="curve" smooth="yes"/>
      <point x="246" y="655"/>
      <point x="264" y="670"/>
      <point x="268" y="689" type="curve" smooth="yes"/>
      <point x="272" y="707"/>
      <point x="260" y="722"/>
      <point x="241" y="722" type="curve" smooth="yes"/>
      <point x="222" y="722"/>
      <point x="204" y="707"/>
    </contour>
  </outline>
</glyph>
<glyph name="divide" format="2">
  <advance width="546"/>
  <unicode hex="00F7"/>
  <outline>
    <contour>
      <point x="475" y="261" type="line"/>
      <point x="475" y="281" type="line"/>
      <point x="72" y="281" type="line"/>
      <point x="72" y="261" type="line"/>
    </contour>
    <contour>
      <point x="237" y="123" type="curve" smooth="yes"/>
      <point x="237" y="104"/>
      <point x="252" y="89"/>
      <point x="271" y="89" type="curve" smooth="yes"/>
      <point x="290" y="89"/>
      <point x="305" y="104"/>
      <point x="305" y="123" type="curve" smooth="yes"/>
      <point x="305" y="141"/>
      <point x="290" y="156"/>
      <point x="271" y="156" type="curve" smooth="yes"/>
      <point x="252" y="156"/>
      <point x="237" y="141"/>
    </contour>
    <contour>
      <point x="237" y="420" type="curve" smooth="yes"/>
      <point x="237" y="401"/>
      <point x="252" y="386"/>
      <point x="271" y="386" type="curve" smooth="yes"/>
      <point x="290" y="386"/>
      <point x="305" y="401"/>
      <point x="305" y="420" type="curve" smooth="yes"/>
      <point x="305" y="438"/>
      <point x="290" y="453"/>
      <point x="271" y="453" type="curve" smooth="yes"/>
      <point x="252" y="453"/>
      <point x="237" y="438"/>
    </contour>
  </outline>
</glyph>
<glyph name="tbar" format="2">
  <advance width="283"/>
  <unicode hex="0167"/>
  <outline>
    <component base="t"/>
    <contour>
      <point x="26" y="319" type="line"/>
      <point x="236" y="319" type="line"/>
      <point x="240" y="339" type="line"/>
      <point x="30" y="339" type="line"/>
    </contour>
  </outline>
</glyph>
<glyph name="apostrophemod" format="2">
  <advance width="173"/>
  <unicode hex="02BC"/>
  <anchor x="127" y="519" name="_top"/>
  <outline>
    <contour>
      <point x="227" y="730" type="line"/>
      <point x="193" y="730" type="line"/>
      <point x="66" y="570" type="line"/>
      <point x="85" y="570" type="line"/>
    </contour>
  </outline>
</glyph>
<glyph name="gravemod" format="2">
  <advance width="159"/>
  <unicode hex="02CB"/>
  <outline>
    <contour>
      <point x="152" y="569" type="line"/>
      <point x="182" y="710" type="line"/>
      <point x="169" y="710" type="line"/>
      <point x="145" y="569" type="line"/>
    </contour>
  </outline>
</glyph>
<glyph name="hungarumlaut" format="2">
  <advance width="298"/>
  <unicode hex="02DD"/>
  <anchor x="148" y="519" name="_top"/>
  <outline>
    <contour>
      <point x="225" y="730" type="line"/>
      <point x="191" y="730" type="line"/>
      <point x="88" y="615" type="line"/>
      <point x="107" y="615" type="line"/>
    </contour>
    <contour>
      <point x="325" y="730" type="line"/>
      <point x="291" y="730" type="line"/>
      <point x="188" y="615" type="line"/>
      <point x="207" y="615" type="line"/>
    </contour>
  </outline>
</glyph>
<glyph name="gravecomb" format="2">
  <advance width="198"/>
  <unicode hex="0300"/>
  <anchor x="151" y="519" name="_top"/>
  <anchor x="177" y="730" name="top"/>
  <outline>
    <contour>
      <point x="112" y="730" type="line"/>
      <point x="182" y="615" type="line"/>
      <point x="201" y="615" type="line"/>
      <point x="146" y="730" type="line"/>
    </contour>
  </outline>
</glyph>
<glyph name="acutecomb" format="2">
  <advance width="198"/>
  <unicode hex="0301"/>
  <anchor x="62" y="519" name="_top"/>
  <anchor x="136" y="730" name="top"/>
  <outline>
    <contour>
      <point x="218.879" y="760" type="line"/>
      <point x="184.879" y="760" type="line"/>
      <point x="58.0625" y="600" type="line"/>
      <point x="77.0625" y="600" type="line"/>
    </contour>
  </outline>
</glyph>
<glyph name="circumflexcomb" format="2">
  <advance width="302"/>
  <unicode hex="0302"/>
  <anchor x="184" y="519" name="_top"/>
  <anchor x="229" y="730" name="top"/>
  <outline>
    <contour>
      <point x="243" y="730" type="line"/>
      <point x="209" y="730" type="line"/>
      <point x="96" y="615" type="line"/>
      <point x="115" y="615" type="line"/>
    </contour>
    <contour>
      <point x="210" y="730" type="line"/>
      <point x="290" y="615" type="line"/>
      <point x="309" y="615" type="line"/>
      <point x="244" y="730" type="line"/>
    </contour>
  </outline>
</glyph>
<glyph name="macroncomb" format="2">
  <advance width="366"/>
  <unicode hex="0304"/>
  <anchor x="238" y="519" name="_top"/>
  <anchor x="278" y="706" name="top"/>
  <outline>
    <contour>
      <point x="407" y="686" type="line"/>
      <point x="411" y="706" type="line"/>
      <point x="145" y="706" type="line"/>
      <point x="141" y="686" type="line"/>
    </contour>
  </outline>
</glyph>
<glyph name="dotaccentcomb" format="2">
  <advance width="120"/>
  <unicode hex="0307"/>
  <anchor x="94" y="519" name="_top"/>
  <anchor x="138" y="730" name="top"/>
  <outline>
    <contour>
      <point x="95" y="689" type="curve" smooth="yes"/>
      <point x="91" y="670"/>
      <point x="103" y="655"/>
      <point x="122" y="655" type="curve" smooth="yes"/>
      <point x="141" y="655"/>
      <point x="159" y="670"/>
      <point x="163" y="689" type="curve" smooth="yes"/>
      <point x="167" y="707"/>
      <point x="155" y="722"/>
      <point x="136" y="722" type="curve" smooth="yes"/>
      <point x="117" y="722"/>
      <point x="99" y="707"/>
    </contour>
  </outline>
</glyph>
<glyph name="dieresiscomb" format="2">
  <advance width="236"/>
  <unicode hex="0308"/>
  <anchor x="152" y="519" name="_top"/>
  <anchor x="194" y="720" name="top"/>
  <outline>
    <contour>
      <point x="92" y="655" type="curve" smooth="yes"/>
      <point x="111" y="655"/>
      <point x="129" y="670"/>
      <point x="133" y="689" type="curve" smooth="yes"/>
      <point x="137" y="707"/>
      <point x="125" y="722"/>
      <point x="106" y="722" type="curve" smooth="yes"/>
      <point x="87" y="722"/>
      <point x="69" y="707"/>
      <point x="65" y="689" type="curve" smooth="yes"/>
      <point x="61" y="670"/>
      <point x="73" y="655"/>
    </contour>
    <contour>
      <point x="266" y="655" type="curve" smooth="yes"/>
      <point x="285" y="655"/>
      <point x="303" y="670"/>
      <point x="307" y="689" type="curve" smooth="yes"/>
      <point x="311" y="707"/>
      <point x="299" y="722"/>
      <point x="280" y="722" type="curve" smooth="yes"/>
      <point x="261" y="722"/>
      <point x="243" y="707"/>
      <point x="239" y="689" type="curve" smooth="yes"/>
      <point x="235" y="670"/>
      <point x="247" y="655"/>
    </contour>
  </outline>
</glyph>
<glyph name="caroncomb" format="2">
  <advance width="302"/>
  <unicode hex="030C"/>
  <anchor x="184" y="519" name="_top"/>
  <anchor x="229" y="730" name="top"/>
  <outline>
    <contour>
      <point x="185" y="615" type="line"/>
      <point x="219" y="615" type="line"/>
      <point x="139" y="730" type="line"/>
      <point x="120" y="730" type="line"/>
    </contour>
    <contour>
      <point x="186" y="615" type="line"/>
      <point x="220" y="615" type="line"/>
      <point x="333" y="730" type="line"/>
      <point x="314" y="730" type="line"/>
    </contour>
  </outline>
</glyph>
<glyph name="dblgravecomb" format="2">
  <advance width="298"/>
  <unicode hex="030F"/>
  <anchor x="213" y="519" name="_top"/>
  <outline>
    <contour>
      <point x="198" y="615" type="line"/>
      <point x="217" y="615" type="line"/>
      <point x="162" y="730" type="line"/>
      <point x="128" y="730" type="line"/>
    </contour>
    <contour>
      <point x="298" y="615" type="line"/>
      <point x="317" y="615" type="line"/>
      <point x="262" y="730" type="line"/>
      <point x="228" y="730" type="line"/>
    </contour>
  </outline>
</glyph>
<glyph name="commaturnedabovecomb" format="2">
  <advance width="120"/>
  <unicode hex="0312"/>
  <anchor x="87" y="519" name="_top"/>
  <anchor x="132" y="730" name="top"/>
  <outline>
    <contour>
      <point x="86" y="613" type="line"/>
      <point x="120" y="613" type="line"/>
      <point x="224" y="728" type="line"/>
      <point x="205" y="728" type="line"/>
    </contour>
  </outline>
</glyph>
<glyph name="dotbelowcomb" format="2">
  <advance width="120"/>
  <unicode hex="0323"/>
  <anchor x="66" y="0" name="_bottom"/>
  <anchor x="39" y="-127" name="bottom"/>
  <outline>
    <contour>
      <point x="13" y="-91" type="curve"/>
      <point x="9" y="-110"/>
      <point x="20" y="-125"/>
      <point x="39" y="-125" type="curve" smooth="yes"/>
      <point x="58" y="-125"/>
      <point x="77" y="-110"/>
      <point x="81" y="-91" type="curve"/>
      <point x="84" y="-73"/>
      <point x="73" y="-58"/>
      <point x="54" y="-58" type="curve" smooth="yes"/>
      <point x="35" y="-58"/>
      <point x="16" y="-73"/>
    </contour>
  </outline>
</glyph>
<glyph name="dieresisbelowcomb" format="2">
  <advance width="236"/>
  <unicode hex="0324"/>
  <anchor x="124" y="0" name="_bottom"/>
  <anchor x="97" y="-127" name="bottom"/>
  <outline>
    <contour>
      <point x="11" y="-124" type="curve" smooth="yes"/>
      <point x="30" y="-124"/>
      <point x="48" y="-109"/>
      <point x="52" y="-90" type="curve" smooth="yes"/>
      <point x="56" y="-72"/>
      <point x="44" y="-57"/>
      <point x="25" y="-57" type="curve" smooth="yes"/>
      <point x="6" y="-57"/>
      <point x="-12" y="-72"/>
      <point x="-16" y="-90" type="curve" smooth="yes"/>
      <point x="-20" y="-109"/>
      <point x="-8" y="-124"/>
    </contour>
    <contour>
      <point x="185" y="-124" type="curve" smooth="yes"/>
      <point x="204" y="-124"/>
      <point x="222" y="-109"/>
      <point x="226" y="-90" type="curve" smooth="yes"/>
      <point x="230" y="-72"/>
      <point x="218" y="-57"/>
      <point x="199" y="-57" type="curve" smooth="yes"/>
      <point x="180" y="-57"/>
      <point x="162" y="-72"/>
      <point x="158" y="-90" type="curve" smooth="yes"/>
      <point x="154" y="-109"/>
      <point x="166" y="-124"/>
    </contour>
  </outline>
</glyph>
<glyph name="commaaccentcomb" format="2">
  <advance width="120"/>
  <unicode hex="0326"/>
  <anchor x="96" y="0" name="_bottom"/>
  <outline>
    <contour>
      <point x="39" y="-196" type="line"/>
      <point x="103" y="-51" type="line"/>
      <point x="67" y="-51" type="line"/>
      <point x="15" y="-196" type="line"/>
    </contour>
  </outline>
</glyph>
<glyph name="cedillacomb" format="2">
  <advance width="239"/>
  <unicode hex="0327"/>
  <outline>
    <contour>
      <point x="71" y="-57" type="line"/>
      <point x="84" y="-52"/>
      <point x="99" y="-51"/>
      <point x="113" y="-51" type="curve" smooth="yes"/>
      <point x="142" y="-51"/>
      <point x="167" y="-60"/>
      <point x="167" y="-93" type="curve" smooth="yes"/>
      <point x="167" y="-147"/>
      <point x="122" y="-162"/>
      <point x="76" y="-162" type="curve" smooth="yes"/>
      <point x="47" y="-162"/>
      <point x="17" y="-155"/>
      <point x="-9" y="-143" type="curve"/>
      <point x="-5" y="-137"/>
      <point x="0" y="-131"/>
      <point x="4" y="-125" type="curve"/>
      <point x="29" y="-138"/>
      <point x="55" y="-143"/>
      <point x="83" y="-143" type="curve" smooth="yes"/>
      <point x="115" y="-143"/>
      <point x="148" y="-134"/>
      <point x="148" y="-96" type="curve" smooth="yes"/>
      <point x="148" y="-72"/>
      <point x="129" y="-67"/>
      <point x="109" y="-67" type="curve" smooth="yes"/>
      <point x="82" y="-67"/>
      <point x="55" y="-74"/>
      <point x="29" y="-83" type="curve"/>
      <point x="100" y="11" type="line"/>
      <point x="115" y="0" type="line"/>
    </contour>
  </outline>
</glyph>
<glyph name="macronbelowcomb" format="2">
  <advance width="355"/>
  <unicode hex="0331"/>
  <anchor x="123" y="0" name="_bottom"/>
  <anchor x="103" y="-95" name="bottom"/>
  <outline>
    <contour>
      <point x="230" y="-95" type="line"/>
      <point x="234" y="-75" type="line"/>
      <point x="-21" y="-75" type="line"/>
      <point x="-25" y="-95" type="line"/>
    </contour>
  </outline>
</glyph>
<glyph name="tonos" format="2">
  <advance width="128"/>
  <unicode hex="0384"/>
  <anchor x="114" y="511" name="_top"/>
  <outline>
    <contour>
      <point x="183" y="767" type="line"/>
      <point x="114" y="576" type="line"/>
      <point x="137" y="572" type="line"/>
      <point x="202" y="765" type="line"/>
    </contour>
  </outline>
</glyph>
<glyph name="dieresistonos" format="2">
  <advance width="285"/>
  <unicode hex="0385"/>
  <anchor x="201" y="532" name="_top"/>
  <outline>
    <component base="tonos" xOffset="88" yOffset="21"/>
    <contour>
      <point x="84" y="637" type="curve"/>
      <point x="79" y="618"/>
      <point x="92" y="598"/>
      <point x="115" y="598" type="curve" smooth="yes"/>
      <point x="135" y="598"/>
      <point x="154" y="615"/>
      <point x="157" y="635" type="curve"/>
      <point x="163" y="657"/>
      <point x="150" y="672"/>
      <point x="128" y="672" type="curve" smooth="yes"/>
      <point x="106" y="672"/>
      <point x="88" y="660"/>
    </contour>
    <contour>
      <point x="301" y="637" type="curve"/>
      <point x="296" y="618"/>
      <point x="310" y="598"/>
      <point x="332" y="598" type="curve" smooth="yes"/>
      <point x="352" y="598"/>
      <point x="370" y="615"/>
      <point x="374" y="635" type="curve"/>
      <point x="379" y="657"/>
      <point x="367" y="672"/>
      <point x="345" y="672" type="curve" smooth="yes"/>
      <point x="325" y="672"/>
      <point x="305" y="660"/>
    </contour>
  </outline>
</glyph>
<glyph name="Theta" format="2">
  <advance width="726"/>
  <unicode hex="0398"/>
  <anchor x="333" y="0" name="bottom"/>
  <anchor x="414" y="355" name="center"/>
  <anchor x="642" y="682" name="horn"/>
  <anchor x="333" y="0" name="ogonek"/>
  <anchor x="495" y="714" name="top"/>
  <anchor x="145" y="714" name="topleft"/>
  <anchor x="848" y="714" name="topright"/>
  <outline>
    <component base="O" xScale="0.9916" yScale="0.9916"/>
    <contour>
      <point x="133" y="348" type="line"/>
      <point x="618" y="348" type="line"/>
      <point x="622" y="366" type="line"/>
      <point x="137" y="366" type="line"/>
    </contour>
  </outline>
</glyph>
<glyph name="Xi" format="2">
  <advance width="606"/>
  <unicode hex="039E"/>
  <outline>
    <contour>
      <point x="22" y="0" type="line"/>
      <point x="468" y="0" type="line"/>
      <point x="472" y="19" type="line"/>
      <point x="25" y="19" type="line"/>
    </contour>
    <contour>
      <point x="167" y="356" type="line"/>
      <point x="482" y="356" type="line"/>
      <point x="486" y="376" type="line"/>
      <point x="171" y="376" type="line"/>
    </contour>
    <contour>
      <point x="181" y="700" type="line"/>
      <point x="627" y="700" type="line"/>
      <point x="631" y="721" type="line"/>
      <point x="184" y="721" type="line"/>
    </contour>
  </outline>
</glyph>
<glyph name="Upsilon" format="2">
  <advance width="603"/>
  <unicode hex="03A5"/>
  <anchor x="240" y="-24" name="bottom"/>
  <anchor x="412" y="745" name="top"/>
  <anchor x="59" y="619" name="topleft"/>
  <outline>
    <contour>
      <point x="234.018" y="0" type="line"/>
      <point x="252.858" y="0" type="line"/>
      <point x="310.371" y="252.858" type="line" smooth="yes"/>
      <point x="352.018" y="432.338"/>
      <point x="468.035" y="558.271"/>
      <point x="640.574" y="693.128" type="curve"/>
      <point x="629.666" y="710.977" type="line"/>
      <point x="471.01" y="578.103"/>
      <point x="408.539" y="523.565"/>
      <point x="330.203" y="371.85" type="curve"/>
      <point x="324.253" y="368.875" type="line"/>
      <point x="311.362" y="520.59"/>
      <point x="275.665" y="576.12"/>
      <point x="175.513" y="707.011" type="curve"/>
      <point x="160.639" y="692.137" type="line"/>
      <point x="259.799" y="574.136"/>
      <point x="335.161" y="453.161"/>
      <point x="291.53" y="255.833" type="curve" smooth="yes"/>
    </contour>
  </outline>
</glyph>
<glyph name="Phi" format="2">
  <advance width="681"/>
  <unicode hex="03A6"/>
  <outline>
    <contour>
      <point x="298" y="108" type="line"/>
      <point x="150" y="108"/>
      <point x="63" y="215"/>
      <point x="96" y="358" type="curve" smooth="yes"/>
      <point x="129" y="503"/>
      <point x="268" y="613"/>
      <point x="416" y="613" type="curve"/>
      <point x="418" y="634" type="line"/>
      <point x="259" y="634"/>
      <point x="109" y="516"/>
      <point x="74" y="360" type="curve" smooth="yes"/>
      <point x="39" y="207"/>
      <point x="136" y="86"/>
      <point x="295" y="86" type="curve"/>
    </contour>
    <contour>
      <point x="289" y="-25" type="line"/>
      <point x="464" y="746" type="line"/>
      <point x="442" y="746" type="line"/>
      <point x="268" y="-25" type="line"/>
    </contour>
    <contour>
      <point x="314" y="86" type="line"/>
      <point x="475" y="86"/>
      <point x="622" y="204"/>
      <point x="657" y="358" type="curve" smooth="yes"/>
      <point x="692" y="513"/>
      <point x="598" y="634"/>
      <point x="437" y="634" type="curve"/>
      <point x="434" y="613" type="line"/>
      <point x="583" y="613"/>
      <point x="667" y="506"/>
      <point x="633" y="360" type="curve"/>
      <point x="602" y="218"/>
      <point x="465" y="108"/>
      <point x="316" y="108" type="curve"/>
    </contour>
  </outline>
</glyph>
<glyph name="Psi" format="2">
  <advance width="679"/>
  <unicode hex="03A8"/>
  <outline>
    <contour>
      <point x="272" y="0" type="line"/>
      <point x="295" y="0" type="line"/>
      <point x="458" y="714" type="line"/>
      <point x="434" y="714" type="line"/>
    </contour>
    <contour>
      <point x="123" y="428" type="line" smooth="yes"/>
      <point x="87" y="271"/>
      <point x="166" y="187"/>
      <point x="318" y="187" type="curve"/>
      <point x="324" y="207" type="line"/>
      <point x="176" y="207"/>
      <point x="108" y="284"/>
      <point x="140" y="429" type="curve"/>
      <point x="147" y="455"/>
      <point x="168" y="531"/>
      <point x="183" y="606" type="curve"/>
      <point x="193" y="649"/>
      <point x="198" y="680"/>
      <point x="197" y="713" type="curve"/>
      <point x="179" y="716" type="line"/>
      <point x="178" y="665"/>
      <point x="173" y="641"/>
      <point x="163" y="597" type="curve" smooth="yes"/>
    </contour>
    <contour>
      <point x="669" y="594" type="line" smooth="yes"/>
      <point x="679" y="637"/>
      <point x="687" y="662"/>
      <point x="708" y="713" type="curve"/>
      <point x="689" y="716" type="line"/>
      <point x="673" y="683"/>
      <point x="665" y="651"/>
      <point x="657" y="608" type="curve"/>
      <point x="640" y="533"/>
      <point x="625" y="458"/>
      <point x="620" y="431" type="curve"/>
      <point x="584" y="287"/>
      <point x="478" y="207"/>
      <point x="335" y="207" type="curve"/>
      <point x="335" y="187" type="line"/>
      <point x="487" y="187"/>
      <point x="597" y="270"/>
      <point x="633" y="425" type="curve"/>
    </contour>
  </outline>
</glyph>
<glyph name="Omega" format="2">
  <advance width="700"/>
  <unicode hex="03A9"/>
  <anchor x="299" y="0" name="bottom"/>
  <anchor x="119" y="619" name="topleft"/>
  <outline>
    <contour>
      <point x="17.8258" y="0" type="line"/>
      <point x="246.59" y="0" type="line"/>
      <point x="267.386" y="102.003" type="line"/>
      <point x="150.529" y="135.674"/>
      <point x="73.2837" y="244.609"/>
      <point x="108.935" y="404.051" type="curve"/>
      <point x="147.558" y="575.376"/>
      <point x="290.164" y="702.137"/>
      <point x="452.576" y="702.137" type="curve" smooth="yes"/>
      <point x="610.037" y="702.137"/>
      <point x="703.127" y="579.337"/>
      <point x="660.543" y="405.041" type="curve"/>
      <point x="625.882" y="250.551"/>
      <point x="498.131" y="136.664"/>
      <point x="357.506" y="102.003" type="curve"/>
      <point x="337.699" y="0" type="line"/>
      <point x="568.444" y="0" type="line"/>
      <point x="571.415" y="20.7967" type="line"/>
      <point x="360.476" y="20.7967" type="line"/>
      <point x="365.428" y="9.9032" type="line"/>
      <point x="383.254" y="94.0804" type="line"/>
      <point x="378.302" y="86.1578" type="line"/>
      <point x="518.928" y="129.732"/>
      <point x="642.718" y="237.677"/>
      <point x="679.36" y="401.08" type="curve" smooth="yes"/>
      <point x="718.972" y="575.376"/>
      <point x="633.805" y="721.943"/>
      <point x="455.547" y="721.943" type="curve" smooth="yes"/>
      <point x="299.077" y="721.943"/>
      <point x="134.684" y="604.095"/>
      <point x="90.1191" y="411.973" type="curve" smooth="yes"/>
      <point x="51.4966" y="246.59"/>
      <point x="128.742" y="128.742"/>
      <point x="246.59" y="88.1385" type="curve"/>
      <point x="244.609" y="94.0804" type="line"/>
      <point x="226.783" y="9.9032" type="line"/>
      <point x="236.686" y="20.7967" type="line"/>
      <point x="20.7967" y="20.7967" type="line"/>
    </contour>
  </outline>
</glyph>
<glyph name="alpha" format="2">
  <advance width="647"/>
  <unicode hex="03B1"/>
  <anchor x="216" y="0" name="bottom"/>
  <anchor x="344" y="519" name="top"/>
  <outline>
    <contour>
      <point x="484.476" y="253.918" type="line"/>
      <point x="445.88" y="175.711"/>
      <point x="372.752" y="15.2351"/>
      <point x="218.37" y="13.2037" type="curve"/>
      <point x="95.4732" y="15.2351"/>
      <point x="46.7209" y="120.865"/>
      <point x="76.1754" y="250.871" type="curve" smooth="yes"/>
      <point x="110.708" y="400.175"/>
      <point x="207.197" y="507.836"/>
      <point x="320.952" y="507.836" type="curve" smooth="yes"/>
      <point x="476.35" y="507.836"/>
      <point x="451.974" y="272.2"/>
      <point x="448.927" y="167.586" type="curve"/>
      <point x="475.335" y="201.103" type="line"/>
      <point x="487.523" y="311.811"/>
      <point x="495.648" y="529.165"/>
      <point x="327.046" y="529.165" type="curve" smooth="yes"/>
      <point x="204.15" y="529.165"/>
      <point x="96.4889" y="419.473"/>
      <point x="58.909" y="256.965" type="curve" smooth="yes"/>
      <point x="25.3918" y="109.693"/>
      <point x="83.2851" y="-8.12538"/>
      <point x="217.354" y="-8.12538" type="curve" smooth="yes"/>
      <point x="316.89" y="-8.12538"/>
      <point x="408.3" y="57.8933"/>
      <point x="474.319" y="184.852" type="curve" smooth="yes"/>
      <point x="646.983" y="519.009" type="line"/>
      <point x="618.544" y="519.009" type="line"/>
    </contour>
    <contour>
      <point x="532.212" y="14.2194" type="line"/>
      <point x="503.773" y="28.4388" type="line"/>
      <point x="475.335" y="46.7209"/>
      <point x="459.084" y="100.552"/>
      <point x="464.162" y="165.555" type="curve"/>
      <point x="438.77" y="156.414" type="line"/>
      <point x="433.692" y="96.4889"/>
      <point x="460.1" y="37.5799"/>
      <point x="496.664" y="7.10971" type="curve"/>
      <point x="519.009" y="-8.12538" type="line"/>
    </contour>
  </outline>
</glyph>
<glyph name="beta" format="2">
  <advance width="616"/>
  <unicode hex="03B2"/>
  <outline>
    <contour>
      <point x="71" y="83" type="line"/>
      <point x="125" y="15"/>
      <point x="202" y="-8"/>
      <point x="267" y="-8" type="curve" smooth="yes"/>
      <point x="390" y="-8"/>
      <point x="514" y="95"/>
      <point x="538" y="218" type="curve"/>
      <point x="568" y="330"/>
      <point x="505" y="426"/>
      <point x="374" y="435" type="curve"/>
      <point x="376" y="439" type="line"/>
      <point x="460" y="484"/>
      <point x="523" y="535"/>
      <point x="539" y="611" type="curve"/>
      <point x="557" y="690"/>
      <point x="520" y="773"/>
      <point x="397" y="771" type="curve"/>
      <point x="247" y="773"/>
      <point x="184" y="652"/>
      <point x="148" y="491" type="curve" smooth="yes"/>
      <point x="-11" y="-209" type="line"/>
      <point x="7" y="-211" type="line"/>
      <point x="30" y="-124"/>
      <point x="55" y="-11"/>
      <point x="77" y="83" type="curve" smooth="yes"/>
      <point x="79" y="91" type="line"/>
      <point x="97" y="185"/>
      <point x="122" y="286"/>
      <point x="164" y="476" type="curve"/>
      <point x="203" y="639"/>
      <point x="267" y="750"/>
      <point x="399" y="750" type="curve" smooth="yes"/>
      <point x="505" y="750"/>
      <point x="533" y="682"/>
      <point x="519" y="619" type="curve" smooth="yes"/>
      <point x="503" y="545"/>
      <point x="421" y="459"/>
      <point x="268" y="425" type="curve"/>
      <point x="265" y="402" type="line"/>
      <point x="269" y="404"/>
      <point x="318" y="411"/>
      <point x="352" y="409" type="curve"/>
      <point x="481" y="411"/>
      <point x="544" y="326"/>
      <point x="521" y="219" type="curve"/>
      <point x="494" y="105"/>
      <point x="379" y="13"/>
      <point x="268" y="11" type="curve"/>
      <point x="212" y="13"/>
      <point x="129" y="33"/>
      <point x="80" y="111" type="curve"/>
    </contour>
  </outline>
</glyph>
<glyph name="gamma" format="2">
  <advance width="479"/>
  <unicode hex="03B3"/>
  <outline>
    <contour>
      <point x="76" y="-211" type="line"/>
      <point x="195" y="97"/>
      <point x="274" y="352"/>
      <point x="117" y="528" type="curve"/>
      <point x="99" y="516" type="line"/>
      <point x="256" y="354"/>
      <point x="169" y="82"/>
      <point x="58" y="-208" type="curve"/>
    </contour>
    <contour>
      <point x="126" y="1" type="line"/>
      <point x="317" y="204"/>
      <point x="428" y="353"/>
      <point x="502" y="517" type="curve"/>
      <point x="479" y="520" type="line"/>
      <point x="421" y="365"/>
      <point x="268" y="192"/>
      <point x="143" y="51" type="curve"/>
    </contour>
  </outline>
</glyph>
<glyph name="delta" format="2">
  <advance width="608"/>
  <unicode hex="03B4"/>
  <outline>
    <contour>
      <point x="227" y="-8" type="curve" smooth="yes"/>
      <point x="369" y="-8"/>
      <point x="495" y="104"/>
      <point x="526" y="251" type="curve"/>
      <point x="564" y="407"/>
      <point x="472" y="482"/>
      <point x="384" y="543" type="curve"/>
      <point x="324" y="597"/>
      <point x="266" y="631"/>
      <point x="279" y="688" type="curve"/>
      <point x="290" y="730"/>
      <point x="330" y="755"/>
      <point x="391" y="755" type="curve" smooth="yes"/>
      <point x="475" y="755"/>
      <point x="597" y="706"/>
      <point x="633" y="659" type="curve"/>
      <point x="653" y="670" type="line"/>
      <point x="610" y="722"/>
      <point x="489" y="776"/>
      <point x="392" y="774" type="curve"/>
      <point x="321" y="776"/>
      <point x="274" y="741"/>
      <point x="261" y="690" type="curve"/>
      <point x="246" y="622"/>
      <point x="310" y="574"/>
      <point x="370" y="529" type="curve"/>
      <point x="451" y="472"/>
      <point x="540" y="400"/>
      <point x="508" y="251" type="curve"/>
      <point x="477" y="120"/>
      <point x="358" y="17"/>
      <point x="227" y="15" type="curve"/>
      <point x="104" y="17"/>
      <point x="31" y="113"/>
      <point x="60" y="244" type="curve"/>
      <point x="94" y="386"/>
      <point x="222" y="486"/>
      <point x="341" y="483" type="curve"/>
      <point x="395" y="486"/>
      <point x="440" y="464"/>
      <point x="478" y="432" type="curve"/>
      <point x="462" y="471" type="line"/>
      <point x="431" y="498"/>
      <point x="387" y="511"/>
      <point x="346" y="510" type="curve" smooth="yes"/>
      <point x="216" y="510"/>
      <point x="80" y="409"/>
      <point x="43" y="248" type="curve" smooth="yes"/>
      <point x="10" y="106"/>
      <point x="91" y="-8"/>
    </contour>
  </outline>
</glyph>
<glyph name="epsilon" format="2">
  <advance width="455"/>
  <unicode hex="03B5"/>
  <anchor x="214" y="-24" name="bottom"/>
  <anchor x="336" y="556" name="top"/>
  <outline>
    <contour>
      <point x="348.376" y="33.5172" type="line"/>
      <point x="315.874" y="24.3761"/>
      <point x="255.949" y="15.2351"/>
      <point x="211.26" y="13.2037" type="curve"/>
      <point x="105.63" y="15.2351"/>
      <point x="43.6739" y="57.8933"/>
      <point x="58.909" y="132.037" type="curve"/>
      <point x="80.2381" y="215.323"/>
      <point x="182.821" y="263.059"/>
      <point x="295.561" y="261.028" type="curve"/>
      <point x="337.203" y="261.028" type="line"/>
      <point x="340.25" y="284.388" type="line"/>
      <point x="285.404" y="284.388" type="line" smooth="yes"/>
      <point x="192.978" y="284.388"/>
      <point x="128.99" y="332.125"/>
      <point x="144.225" y="399.159" type="curve"/>
      <point x="156.414" y="446.896"/>
      <point x="209.228" y="508.852"/>
      <point x="315.874" y="508.852" type="curve" smooth="yes"/>
      <point x="357.517" y="508.852"/>
      <point x="422.52" y="500.726"/>
      <point x="443.849" y="485.491" type="curve"/>
      <point x="454.006" y="506.82" type="line"/>
      <point x="424.551" y="517.993"/>
      <point x="370.72" y="529.165"/>
      <point x="323.999" y="529.165" type="curve" smooth="yes"/>
      <point x="202.119" y="529.165"/>
      <point x="138.131" y="468.225"/>
      <point x="124.928" y="405.253" type="curve" smooth="yes"/>
      <point x="112.74" y="348.376"/>
      <point x="147.272" y="290.482"/>
      <point x="211.26" y="275.247" type="curve"/>
      <point x="207.197" y="273.216" type="line"/>
      <point x="119.849" y="254.934"/>
      <point x="56.8777" y="206.181"/>
      <point x="40.6269" y="137.116" type="curve"/>
      <point x="23.3605" y="53.8306"/>
      <point x="90.3948" y="-8.12538"/>
      <point x="216.338" y="-8.12538" type="curve" smooth="yes"/>
      <point x="269.153" y="-8.12538"/>
      <point x="315.874" y="2.03134"/>
      <point x="345.329" y="7.10971" type="curve"/>
    </contour>
  </outline>
</glyph>
<glyph name="zeta" format="2">
  <advance width="484"/>
  <unicode hex="03B6"/>
  <outline>
    <contour>
      <point x="242" y="-145" type="curve"/>
      <point x="319" y="-145"/>
      <point x="387" y="-105"/>
      <point x="395" y="-54" type="curve"/>
      <point x="410" y="-10"/>
      <point x="373" y="24"/>
      <point x="315" y="21" type="curve"/>
      <point x="283" y="24"/>
      <point x="248" y="13"/>
      <point x="191" y="10" type="curve"/>
      <point x="117" y="13"/>
      <point x="53" y="36"/>
      <point x="81" y="173" type="curve"/>
      <point x="121" y="340"/>
      <point x="266" y="557"/>
      <point x="508" y="711" type="curve"/>
      <point x="513" y="732" type="line"/>
      <point x="345" y="732" type="line" smooth="yes"/>
      <point x="294" y="732"/>
      <point x="293" y="745"/>
      <point x="295" y="762" type="curve"/>
      <point x="299" y="767"/>
      <point x="307" y="782"/>
      <point x="314" y="789" type="curve"/>
      <point x="293" y="804" type="line"/>
      <point x="281" y="790"/>
      <point x="278" y="778"/>
      <point x="276" y="768" type="curve"/>
      <point x="267" y="734"/>
      <point x="284" y="708"/>
      <point x="344" y="706" type="curve"/>
      <point x="471" y="706" type="line"/>
      <point x="471" y="715" type="line"/>
      <point x="354" y="647"/>
      <point x="112" y="410"/>
      <point x="59" y="179" type="curve"/>
      <point x="20" y="3"/>
      <point x="131" y="-8"/>
      <point x="196" y="-8" type="curve" smooth="yes"/>
      <point x="254" y="-8"/>
      <point x="288" y="0"/>
      <point x="314" y="0" type="curve" smooth="yes"/>
      <point x="361" y="0"/>
      <point x="384" y="-19"/>
      <point x="377" y="-51" type="curve"/>
      <point x="367" y="-91"/>
      <point x="308" y="-127"/>
      <point x="243" y="-127" type="curve" smooth="yes"/>
      <point x="218" y="-127"/>
      <point x="180" y="-121"/>
      <point x="151" y="-109" type="curve"/>
      <point x="149" y="-133" type="line"/>
      <point x="186" y="-141"/>
      <point x="221" y="-145"/>
    </contour>
  </outline>
</glyph>
<glyph name="eta" format="2">
  <advance width="548"/>
  <unicode hex="03B7"/>
  <anchor x="40" y="0" name="bottom"/>
  <anchor x="361" y="519" name="top"/>
  <outline>
    <contour>
      <point x="53.8306" y="-2.03134" type="line"/>
      <point x="94.4575" y="124.928"/>
      <point x="128.99" y="241.73"/>
      <point x="151.335" y="346.344" type="curve"/>
      <point x="169.617" y="423.535"/>
      <point x="181.805" y="484.476"/>
      <point x="126.959" y="529.165" type="curve"/>
      <point x="111.724" y="508.852" type="line"/>
      <point x="144.225" y="492.601"/>
      <point x="161.492" y="474.319"/>
      <point x="126.959" y="337.203" type="curve"/>
      <point x="108.677" y="243.761"/>
      <point x="72.1127" y="118.834"/>
      <point x="30.4702" y="2.03134" type="curve"/>
    </contour>
    <contour>
      <point x="297.592" y="-211.26" type="line"/>
      <point x="345.329" y="-120.865"/>
      <point x="425.567" y="95.4732"/>
      <point x="460.1" y="250.871" type="curve" smooth="yes"/>
      <point x="503.773" y="442.833"/>
      <point x="478.382" y="529.165"/>
      <point x="372.752" y="529.165" type="curve" smooth="yes"/>
      <point x="268.137" y="529.165"/>
      <point x="191.962" y="440.802"/>
      <point x="144.225" y="357.517" type="curve"/>
      <point x="118.834" y="226.495" type="line"/>
      <point x="145.241" y="346.344"/>
      <point x="251.887" y="506.82"/>
      <point x="375.799" y="506.82" type="curve" smooth="yes"/>
      <point x="463.147" y="506.82"/>
      <point x="480.413" y="427.598"/>
      <point x="437.755" y="244.777" type="curve"/>
      <point x="411.347" y="123.912"/>
      <point x="354.47" y="-49.7679"/>
      <point x="279.31" y="-202.119" type="curve"/>
    </contour>
  </outline>
</glyph>
<glyph name="theta" format="2">
  <advance width="611"/>
  <unicode hex="03B8"/>
  <outline>
    <contour>
      <point x="248" y="-8" type="curve" smooth="yes"/>
      <point x="379" y="-8"/>
      <point x="511" y="157"/>
      <point x="564" y="383" type="curve"/>
      <point x="616" y="615"/>
      <point x="555" y="773"/>
      <point x="422" y="771" type="curve"/>
      <point x="295" y="773"/>
      <point x="155" y="607"/>
      <point x="104" y="384" type="curve"/>
      <point x="50" y="139"/>
      <point x="121" y="-8"/>
    </contour>
    <contour>
      <point x="244" y="11" type="curve"/>
      <point x="119" y="13"/>
      <point x="83" y="180"/>
      <point x="123" y="370" type="curve"/>
      <point x="175" y="596"/>
      <point x="313" y="750"/>
      <point x="425" y="750" type="curve" smooth="yes"/>
      <point x="552" y="750"/>
      <point x="587" y="589"/>
      <point x="544" y="393" type="curve" smooth="yes"/>
      <point x="492" y="167"/>
      <point x="360" y="13"/>
    </contour>
    <contour>
      <point x="549" y="375" type="line"/>
      <point x="554" y="394" type="line"/>
      <point x="119" y="394" type="line"/>
      <point x="115" y="375" type="line"/>
    </contour>
  </outline>
</glyph>
<glyph name="iota" format="2">
  <advance width="248"/>
  <unicode hex="03B9"/>
  <anchor x="51" y="-22" name="bottom"/>
  <anchor x="38" y="-2" name="ogonek"/>
  <anchor x="165" y="517" name="top"/>
  <outline>
    <contour>
      <point x="95.403" y="-8.11941" type="curve"/>
      <point x="94.3881" y="-8.11941"/>
      <point x="110.627" y="-9.13433"/>
      <point x="131.94" y="-1.01493" type="curve"/>
      <point x="123.821" y="17.2537" type="line"/>
      <point x="107.582" y="13.194"/>
      <point x="103.522" y="12.1791"/>
      <point x="92.3582" y="10.1493" type="curve"/>
      <point x="60.8955" y="12.1791"/>
      <point x="58.8657" y="32.4776"/>
      <point x="76.1194" y="108.597" type="curve"/>
      <point x="92.3582" y="176.597"/>
      <point x="143.105" y="376.537"/>
      <point x="180.657" y="516.597" type="curve"/>
      <point x="156.299" y="519.642" type="line"/>
      <point x="117.731" y="368.418"/>
      <point x="79.1642" y="207.045"/>
      <point x="50.7463" y="77.1344" type="curve"/>
      <point x="33.4925" y="9.13433"/>
      <point x="60.8955" y="-8.11941"/>
    </contour>
  </outline>
</glyph>
<glyph name="kappa" format="2">
  <advance width="533"/>
  <unicode hex="03BA"/>
  <outline>
    <contour>
      <point x="35.5485" y="-4.06269" type="line"/>
      <point x="173.68" y="285.404"/>
      <point x="408.3" y="476.35"/>
      <point x="546.432" y="509.868" type="curve"/>
      <point x="550.494" y="529.165" type="line"/>
      <point x="439.786" y="508.852"/>
      <point x="228.526" y="372.752"/>
      <point x="87.3478" y="133.053" type="curve"/>
      <point x="87.3478" y="128.99" type="line"/>
      <point x="120.865" y="215.323"/>
      <point x="141.178" y="291.498"/>
      <point x="151.335" y="344.313" type="curve"/>
      <point x="182.821" y="473.303"/>
      <point x="158.445" y="506.82"/>
      <point x="123.912" y="529.165" type="curve"/>
      <point x="107.661" y="508.852" type="line"/>
      <point x="152.351" y="488.538"/>
      <point x="153.367" y="445.88"/>
      <point x="127.975" y="350.407" type="curve"/>
      <point x="105.63" y="233.605"/>
      <point x="59.9247" y="112.74"/>
      <point x="14.2194" y="0" type="curve"/>
    </contour>
    <contour>
      <point x="416.426" y="13.2037" type="line"/>
      <point x="325.015" y="81.2538"/>
      <point x="284.388" y="222.432"/>
      <point x="272.2" y="335.172" type="curve"/>
      <point x="245.793" y="317.905" type="line"/>
      <point x="264.075" y="206.181"/>
      <point x="325.015" y="46.7209"/>
      <point x="402.206" y="-8.12538" type="curve"/>
    </contour>
  </outline>
</glyph>
<glyph name="lambda" format="2">
  <advance width="586"/>
  <unicode hex="03BB"/>
  <outline>
    <contour>
      <point x="453" y="-8" type="curve" smooth="yes"/>
      <point x="463" y="-8"/>
      <point x="487" y="-2"/>
      <point x="494" y="2" type="curve"/>
      <point x="487" y="19" type="line"/>
      <point x="470" y="16"/>
      <point x="461" y="14"/>
      <point x="451" y="12" type="curve"/>
      <point x="425" y="14"/>
      <point x="403" y="38"/>
      <point x="384" y="209" type="curve" smooth="yes"/>
      <point x="349" y="534" type="line"/>
      <point x="337" y="663"/>
      <point x="327" y="773"/>
      <point x="239" y="771" type="curve"/>
      <point x="215" y="773"/>
      <point x="188" y="760"/>
      <point x="173" y="753" type="curve"/>
      <point x="180" y="737" type="line"/>
      <point x="195" y="745"/>
      <point x="219" y="752"/>
      <point x="237" y="752" type="curve" smooth="yes"/>
      <point x="307" y="752"/>
      <point x="313" y="673"/>
      <point x="324" y="545" type="curve"/>
      <point x="330" y="519" type="line"/>
      <point x="331" y="536" type="line"/>
      <point x="-38" y="0" type="line"/>
      <point x="-13" y="0" type="line"/>
      <point x="331" y="501" type="line"/>
      <point x="335" y="501" type="line"/>
      <point x="365" y="216" type="line"/>
      <point x="385" y="52"/>
      <point x="400" y="-8"/>
    </contour>
  </outline>
</glyph>
<glyph name="mu" format="2">
  <advance width="566"/>
  <unicode hex="03BC"/>
  <anchor x="242" y="0" name="bottom"/>
  <anchor x="511" y="519" name="horn"/>
  <anchor x="401" y="0" name="ogonek"/>
  <anchor x="340" y="519" name="top"/>
  <outline>
    <contour>
      <point x="13" y="-207" type="line"/>
      <point x="27" y="-115"/>
      <point x="55" y="4"/>
      <point x="75" y="93" type="curve"/>
      <point x="69" y="83" type="line"/>
      <point x="80" y="19"/>
      <point x="123" y="-8"/>
      <point x="193" y="-8" type="curve" smooth="yes"/>
      <point x="295" y="-8"/>
      <point x="373" y="51"/>
      <point x="418" y="120" type="curve"/>
      <point x="423" y="156" type="line"/>
      <point x="375" y="85"/>
      <point x="293" y="14"/>
      <point x="192" y="12" type="curve"/>
      <point x="51" y="14"/>
      <point x="89" y="171"/>
      <point x="111" y="257" type="curve"/>
      <point x="168" y="519" type="line"/>
      <point x="146" y="519" type="line"/>
      <point x="93" y="281" type="line" smooth="yes"/>
      <point x="56" y="121"/>
      <point x="17" y="-49"/>
      <point x="-11" y="-207" type="curve"/>
    </contour>
    <contour>
      <point x="457" y="12" type="line"/>
      <point x="451" y="15" type="line"/>
      <point x="430" y="30"/>
      <point x="419" y="61"/>
      <point x="430" y="106" type="curve"/>
      <point x="522" y="519" type="line"/>
      <point x="503" y="519" type="line"/>
      <point x="418" y="146" type="line"/>
      <point x="407" y="111" type="line"/>
      <point x="394" y="52"/>
      <point x="408" y="17"/>
      <point x="435" y="-2" type="curve"/>
      <point x="442" y="-8" type="line"/>
    </contour>
  </outline>
</glyph>
<glyph name="nu" format="2">
  <advance width="468"/>
  <unicode hex="03BD"/>
  <outline>
    <contour>
      <point x="180" y="-2" type="line"/>
      <point x="335" y="204"/>
      <point x="431" y="352"/>
      <point x="492" y="517" type="curve"/>
      <point x="467" y="520" type="line"/>
      <point x="422" y="365"/>
      <point x="304" y="205"/>
      <point x="172" y="22" type="curve"/>
    </contour>
    <contour>
      <point x="180" y="-2" type="line"/>
      <point x="189" y="246"/>
      <point x="144" y="422"/>
      <point x="104" y="517" type="curve"/>
      <point x="77" y="520" type="line"/>
      <point x="137" y="421"/>
      <point x="166" y="200"/>
      <point x="159" y="2" type="curve"/>
    </contour>
  </outline>
</glyph>
<glyph name="xi" format="2">
  <advance width="472"/>
  <unicode hex="03BE"/>
  <outline>
    <contour>
      <point x="251" y="-145" type="curve"/>
      <point x="326" y="-145"/>
      <point x="394" y="-105"/>
      <point x="402" y="-54" type="curve"/>
      <point x="417" y="-10"/>
      <point x="381" y="24"/>
      <point x="321" y="21" type="curve"/>
      <point x="292" y="24"/>
      <point x="254" y="13"/>
      <point x="209" y="10" type="curve"/>
      <point x="93" y="13"/>
      <point x="25" y="94"/>
      <point x="47" y="192" type="curve"/>
      <point x="75" y="304"/>
      <point x="208" y="385"/>
      <point x="354" y="386" type="curve"/>
      <point x="365" y="386" type="line"/>
      <point x="368" y="403" type="line"/>
      <point x="332" y="403" type="line"/>
      <point x="223" y="406"/>
      <point x="157" y="472"/>
      <point x="178" y="558" type="curve"/>
      <point x="202" y="648"/>
      <point x="304" y="715"/>
      <point x="415" y="711" type="curve"/>
      <point x="458" y="713"/>
      <point x="501" y="709"/>
      <point x="542" y="705" type="curve"/>
      <point x="549" y="732" type="line"/>
      <point x="331" y="732" type="line" smooth="yes"/>
      <point x="279" y="732"/>
      <point x="279" y="745"/>
      <point x="280" y="762" type="curve"/>
      <point x="285" y="767"/>
      <point x="293" y="782"/>
      <point x="298" y="789" type="curve"/>
      <point x="279" y="804" type="line"/>
      <point x="267" y="790"/>
      <point x="263" y="778"/>
      <point x="261" y="768" type="curve"/>
      <point x="252" y="734"/>
      <point x="269" y="707"/>
      <point x="329" y="705" type="curve"/>
      <point x="392" y="728" type="line"/>
      <point x="279" y="728"/>
      <point x="174" y="662"/>
      <point x="152" y="557" type="curve" smooth="yes"/>
      <point x="131" y="458"/>
      <point x="202" y="379"/>
      <point x="319" y="387" type="curve"/>
      <point x="319" y="400" type="line"/>
      <point x="185" y="407"/>
      <point x="58" y="328"/>
      <point x="30" y="204" type="curve"/>
      <point x="2" y="84"/>
      <point x="81" y="-8"/>
      <point x="213" y="-8" type="curve" smooth="yes"/>
      <point x="251" y="-8"/>
      <point x="300" y="0"/>
      <point x="324" y="0" type="curve" smooth="yes"/>
      <point x="368" y="0"/>
      <point x="391" y="-19"/>
      <point x="384" y="-51" type="curve"/>
      <point x="374" y="-91"/>
      <point x="318" y="-127"/>
      <point x="250" y="-127" type="curve" smooth="yes"/>
      <point x="225" y="-127"/>
      <point x="188" y="-121"/>
      <point x="158" y="-109" type="curve"/>
      <point x="156" y="-133" type="line"/>
      <point x="194" y="-141"/>
      <point x="228" y="-145"/>
    </contour>
  </outline>
</glyph>
<glyph name="omicron" format="2">
  <advance width="602"/>
  <unicode hex="03BF"/>
  <anchor x="360" y="519" name="top"/>
  <outline>
    <contour>
      <point x="241.552" y="-8.11941" type="curve" smooth="yes"/>
      <point x="388.717" y="-8.11941"/>
      <point x="517.612" y="105.552"/>
      <point x="550.09" y="258.806" type="curve"/>
      <point x="588.657" y="416.12"/>
      <point x="508.478" y="528.776"/>
      <point x="360.299" y="528.776" type="curve" smooth="yes"/>
      <point x="215.164" y="528.776"/>
      <point x="88.2985" y="419.164"/>
      <point x="51.7612" y="259.821" type="curve" smooth="yes"/>
      <point x="17.2537" y="108.597"/>
      <point x="95.403" y="-8.11941"/>
    </contour>
    <contour>
      <point x="242.567" y="13.194" type="curve"/>
      <point x="114.687" y="15.2239"/>
      <point x="36.5373" y="112.657"/>
      <point x="71.0448" y="258.806" type="curve" smooth="yes"/>
      <point x="104.537" y="408"/>
      <point x="227.343" y="507.463"/>
      <point x="359.284" y="507.463" type="curve" smooth="yes"/>
      <point x="491.224" y="507.463"/>
      <point x="565.314" y="411.045"/>
      <point x="530.806" y="259.821" type="curve" smooth="yes"/>
      <point x="497.314" y="115.702"/>
      <point x="378.567" y="15.2239"/>
    </contour>
  </outline>
</glyph>
<glyph name="pi" format="2">
  <advance width="591"/>
  <unicode hex="03C0"/>
  <outline>
    <contour>
      <point x="246" y="509" type="line"/>
      <point x="207" y="320"/>
      <point x="147" y="174"/>
      <point x="70" y="2" type="curve"/>
      <point x="90" y="-2" type="line"/>
      <point x="170" y="176"/>
      <point x="232" y="332"/>
      <point x="267" y="505" type="curve"/>
    </contour>
    <contour>
      <point x="97" y="431" type="line"/>
      <point x="142" y="502"/>
      <point x="183" y="500"/>
      <point x="268" y="500" type="curve" smooth="yes"/>
      <point x="596" y="500" type="line"/>
      <point x="600" y="519" type="line"/>
      <point x="245" y="519" type="line" smooth="yes"/>
      <point x="169" y="519"/>
      <point x="130" y="515"/>
      <point x="79" y="443" type="curve"/>
    </contour>
    <contour>
      <point x="408" y="-8" type="curve" smooth="yes"/>
      <point x="421" y="-8"/>
      <point x="435" y="-5"/>
      <point x="448" y="3" type="curve"/>
      <point x="442" y="21" type="line"/>
      <point x="430" y="15"/>
      <point x="418" y="11"/>
      <point x="406" y="11" type="curve"/>
      <point x="377" y="11"/>
      <point x="369" y="33"/>
      <point x="389" y="111" type="curve"/>
      <point x="499" y="508" type="line"/>
      <point x="478" y="508" type="line"/>
      <point x="372" y="116" type="line" smooth="yes"/>
      <point x="347" y="21"/>
      <point x="356" y="-8"/>
    </contour>
  </outline>
</glyph>
<glyph name="rho" format="2">
  <advance width="586"/>
  <unicode hex="03C1"/>
  <outline>
    <contour>
      <point x="11.0032" y="-207.06" type="line"/>
      <point x="30.0087" y="-12.0035"/>
      <point x="30.0087" y="39.0113"/>
      <point x="76.022" y="224.065" type="curve"/>
      <point x="127.037" y="412.119"/>
      <point x="228.066" y="510.148"/>
      <point x="353.102" y="510.148" type="curve" smooth="yes"/>
      <point x="494.143" y="510.148"/>
      <point x="535.155" y="391.113"/>
      <point x="508.147" y="269.078" type="curve"/>
      <point x="474.137" y="122.035"/>
      <point x="346.1" y="5.00145"/>
      <point x="225.065" y="5.00145" type="curve" smooth="yes"/>
      <point x="158.046" y="5.00145"/>
      <point x="94.0272" y="41.0119"/>
      <point x="57.0165" y="175.051" type="curve"/>
      <point x="45.013" y="125.036" type="line"/>
      <point x="84.0243" y="26.0075"/>
      <point x="147.043" y="-8.00232"/>
      <point x="221.064" y="-8.00232" type="curve" smooth="yes"/>
      <point x="343.099" y="-8.00232"/>
      <point x="488.141" y="86.0249"/>
      <point x="529.153" y="267.077" type="curve" smooth="yes"/>
      <point x="561.162" y="414.12"/>
      <point x="511.148" y="528.153"/>
      <point x="349.101" y="529.153" type="curve" smooth="yes"/>
      <point x="199.058" y="528.153"/>
      <point x="101.029" y="426.123"/>
      <point x="43.0125" y="167.048" type="curve"/>
      <point x="10.0029" y="27.0078"/>
      <point x="-5.00145" y="-128.037"/>
      <point x="-10.0029" y="-208.06" type="curve"/>
    </contour>
  </outline>
</glyph>
<glyph name="sigmafinal" format="2">
  <advance width="534"/>
  <unicode hex="03C2"/>
  <outline>
    <contour>
      <point x="249" y="-145" type="curve" smooth="yes"/>
      <point x="325" y="-145"/>
      <point x="394" y="-105"/>
      <point x="403" y="-53" type="curve"/>
      <point x="417" y="-10"/>
      <point x="381" y="23"/>
      <point x="321" y="21" type="curve"/>
      <point x="293" y="23"/>
      <point x="249" y="13"/>
      <point x="215" y="11" type="curve"/>
      <point x="103" y="13"/>
      <point x="46" y="118"/>
      <point x="75" y="251" type="curve"/>
      <point x="109" y="401"/>
      <point x="232" y="508"/>
      <point x="361" y="508" type="curve" smooth="yes"/>
      <point x="432" y="508"/>
      <point x="497" y="476"/>
      <point x="515" y="441" type="curve"/>
      <point x="528" y="455" type="line"/>
      <point x="508" y="499"/>
      <point x="430" y="529"/>
      <point x="358" y="529" type="curve" smooth="yes"/>
      <point x="220" y="529"/>
      <point x="94" y="417"/>
      <point x="59" y="255" type="curve"/>
      <point x="26" y="114"/>
      <point x="85" y="-8"/>
      <point x="217" y="-8" type="curve" smooth="yes"/>
      <point x="249" y="-8"/>
      <point x="298" y="0"/>
      <point x="323" y="0" type="curve" smooth="yes"/>
      <point x="368" y="0"/>
      <point x="389" y="-21"/>
      <point x="383" y="-52" type="curve"/>
      <point x="372" y="-90"/>
      <point x="315" y="-125"/>
      <point x="250" y="-125" type="curve" smooth="yes"/>
      <point x="226" y="-125"/>
      <point x="189" y="-119"/>
      <point x="159" y="-107" type="curve"/>
      <point x="156" y="-133" type="line"/>
      <point x="193" y="-141"/>
      <point x="227" y="-145"/>
    </contour>
  </outline>
</glyph>
<glyph name="sigma" format="2">
  <advance width="655"/>
  <unicode hex="03C3"/>
  <anchor x="366" y="519" name="top"/>
  <outline>
    <component base="omicron" xOffset="7"/>
    <contour>
      <point x="422" y="511" type="line"/>
      <point x="602" y="500"/>
      <point x="576" y="498"/>
      <point x="649" y="489" type="curve"/>
      <point x="652" y="514" type="line"/>
      <point x="543" y="523"/>
      <point x="475" y="529"/>
      <point x="368" y="529" type="curve"/>
    </contour>
  </outline>
</glyph>
<glyph name="tau" format="2">
  <advance width="448"/>
  <unicode hex="03C4"/>
  <outline>
    <contour>
      <point x="87" y="434" type="line"/>
      <point x="127" y="503"/>
      <point x="165" y="500"/>
      <point x="264" y="500" type="curve" smooth="yes"/>
      <point x="480" y="500" type="line"/>
      <point x="484" y="519" type="line"/>
      <point x="247" y="519" type="line" smooth="yes"/>
      <point x="155" y="519"/>
      <point x="113" y="515"/>
      <point x="63" y="442" type="curve"/>
    </contour>
    <contour>
      <point x="219" y="-8" type="curve" smooth="yes"/>
      <point x="220" y="-8"/>
      <point x="234" y="-8"/>
      <point x="255" y="-1" type="curve"/>
      <point x="247" y="17" type="line"/>
      <point x="233" y="13"/>
      <point x="228" y="12"/>
      <point x="216" y="10" type="curve"/>
      <point x="187" y="12"/>
      <point x="184" y="33"/>
      <point x="200" y="109" type="curve" smooth="yes"/>
      <point x="214" y="175"/>
      <point x="272" y="375"/>
      <point x="307" y="499" type="curve"/>
      <point x="286" y="502" type="line"/>
      <point x="246" y="369"/>
      <point x="204" y="209"/>
      <point x="174" y="76" type="curve"/>
      <point x="157" y="10"/>
      <point x="188" y="-8"/>
    </contour>
  </outline>
</glyph>
<glyph name="upsilon" format="2">
  <advance width="523"/>
  <unicode hex="03C5"/>
  <anchor x="294" y="519" name="top"/>
  <outline>
    <contour>
      <point x="60.8955" y="163.403" type="curve"/>
      <point x="28.4179" y="29.4328"/>
      <point x="123.821" y="-8.11941"/>
      <point x="204" y="-8.11941" type="curve" smooth="yes"/>
      <point x="308.537" y="-8.11941"/>
      <point x="404.955" y="57.8508"/>
      <point x="452.657" y="264.896" type="curve" smooth="yes"/>
      <point x="463.821" y="316.657"/>
      <point x="482.09" y="429.314"/>
      <point x="482.09" y="516.597" type="curve"/>
      <point x="461.791" y="519.642" type="line"/>
      <point x="463.821" y="429.314"/>
      <point x="445.552" y="323.761"/>
      <point x="433.373" y="268.955" type="curve" smooth="yes"/>
      <point x="393.791" y="92.3582"/>
      <point x="314.627" y="15.2239"/>
      <point x="207.045" y="12.1791" type="curve"/>
      <point x="126.866" y="15.2239"/>
      <point x="56.8358" y="50.7463"/>
      <point x="77.1344" y="159.343" type="curve"/>
      <point x="87.2836" y="189.791"/>
      <point x="113.672" y="281.134"/>
      <point x="124.836" y="330.866" type="curve"/>
      <point x="138.03" y="391.761"/>
      <point x="143.105" y="447.582"/>
      <point x="141.075" y="516.597" type="curve"/>
      <point x="122.806" y="519.642" type="line"/>
      <point x="124.836" y="441.493"/>
      <point x="115.702" y="377.552"/>
      <point x="103.522" y="323.761" type="curve"/>
      <point x="90.3284" y="267.94"/>
      <point x="66.9851" y="195.881"/>
    </contour>
  </outline>
</glyph>
<glyph name="phi" format="2">
  <advance width="690"/>
  <unicode hex="03C6"/>
  <outline>
    <contour>
      <point x="245" y="-209" type="line"/>
      <point x="366" y="321" type="line"/>
      <point x="396" y="455"/>
      <point x="455" y="510"/>
      <point x="520" y="510" type="curve" smooth="yes"/>
      <point x="611" y="510"/>
      <point x="650" y="408"/>
      <point x="617" y="269" type="curve"/>
      <point x="579" y="94"/>
      <point x="467" y="6"/>
      <point x="287" y="6" type="curve"/>
      <point x="286" y="-8" type="line"/>
      <point x="477" y="-8"/>
      <point x="594" y="75"/>
      <point x="639" y="269" type="curve"/>
      <point x="673" y="423"/>
      <point x="628" y="528"/>
      <point x="521" y="529" type="curve" smooth="yes"/>
      <point x="449" y="528"/>
      <point x="382" y="479"/>
      <point x="351" y="340" type="curve" smooth="yes"/>
      <point x="226" y="-209" type="line"/>
    </contour>
    <contour>
      <point x="92" y="254" type="curve" smooth="yes"/>
      <point x="56" y="99"/>
      <point x="121" y="-8"/>
      <point x="285" y="-8" type="curve"/>
      <point x="288" y="6" type="line"/>
      <point x="132" y="6"/>
      <point x="84" y="115"/>
      <point x="116" y="248" type="curve"/>
      <point x="134" y="328"/>
      <point x="183" y="436"/>
      <point x="232" y="504" type="curve"/>
      <point x="215" y="520" type="line"/>
      <point x="159" y="431"/>
      <point x="112" y="344"/>
    </contour>
  </outline>
</glyph>
<glyph name="chi" format="2">
  <advance width="523"/>
  <unicode hex="03C7"/>
  <outline>
    <contour>
      <point x="-56" y="-211" type="line"/>
      <point x="123" y="51"/>
      <point x="323" y="289"/>
      <point x="521" y="517" type="curve"/>
      <point x="499" y="520" type="line"/>
      <point x="288" y="283"/>
      <point x="97" y="49"/>
      <point x="-78" y="-208" type="curve"/>
    </contour>
    <contour>
      <point x="365" y="-213" type="curve" smooth="yes"/>
      <point x="389" y="-213"/>
      <point x="405" y="-204"/>
      <point x="410" y="-203" type="curve"/>
      <point x="402" y="-182" type="line"/>
      <point x="386" y="-191"/>
      <point x="374" y="-192"/>
      <point x="363" y="-190" type="curve"/>
      <point x="326" y="-192"/>
      <point x="318" y="-150"/>
      <point x="306" y="-104" type="curve"/>
      <point x="203" y="382" type="line"/>
      <point x="194" y="432"/>
      <point x="180" y="524"/>
      <point x="111" y="524" type="curve" smooth="yes"/>
      <point x="93" y="524"/>
      <point x="75" y="516"/>
      <point x="66" y="512" type="curve"/>
      <point x="69" y="495" type="line"/>
      <point x="79" y="501"/>
      <point x="96" y="507"/>
      <point x="116" y="507" type="curve" smooth="yes"/>
      <point x="164" y="507"/>
      <point x="170" y="449"/>
      <point x="185" y="385" type="curve"/>
      <point x="294" y="-131" type="line"/>
      <point x="299" y="-151"/>
      <point x="314" y="-213"/>
    </contour>
  </outline>
</glyph>
<glyph name="psi" format="2">
  <advance width="713"/>
  <unicode hex="03C8"/>
  <outline>
    <contour>
      <point x="87" y="234" type="line"/>
      <point x="51" y="73"/>
      <point x="132" y="-8"/>
      <point x="289" y="-8" type="curve"/>
      <point x="293" y="6" type="line"/>
      <point x="142" y="6"/>
      <point x="74" y="89"/>
      <point x="106" y="233" type="curve"/>
      <point x="114" y="263"/>
      <point x="132" y="343"/>
      <point x="149" y="417" type="curve" smooth="yes"/>
      <point x="158" y="458"/>
      <point x="164" y="493"/>
      <point x="165" y="517" type="curve"/>
      <point x="143" y="520" type="line"/>
      <point x="145" y="479"/>
      <point x="137" y="449"/>
      <point x="127" y="406" type="curve" smooth="yes"/>
    </contour>
    <contour>
      <point x="236" y="-225" type="line"/>
      <point x="257" y="-225" type="line"/>
      <point x="464" y="689" type="line"/>
      <point x="444" y="689" type="line"/>
    </contour>
    <contour>
      <point x="649" y="403" type="line"/>
      <point x="661" y="446"/>
      <point x="666" y="476"/>
      <point x="683" y="517" type="curve"/>
      <point x="664" y="520" type="line"/>
      <point x="650" y="497"/>
      <point x="642" y="461"/>
      <point x="635" y="419" type="curve"/>
      <point x="617" y="346"/>
      <point x="601" y="266"/>
      <point x="595" y="235" type="curve"/>
      <point x="561" y="87"/>
      <point x="450" y="6"/>
      <point x="303" y="6" type="curve"/>
      <point x="306" y="-8" type="line"/>
      <point x="461" y="-8"/>
      <point x="574" y="70"/>
      <point x="608" y="231" type="curve"/>
    </contour>
  </outline>
</glyph>
<glyph name="omega" format="2">
  <advance width="741"/>
  <unicode hex="03C9"/>
  <anchor x="311" y="0" name="bottom"/>
  <anchor x="431" y="519" name="top"/>
  <outline>
    <contour>
      <point x="69.0149" y="249.672" type="curve"/>
      <point x="36.5373" y="105.552"/>
      <point x="84.2388" y="-8.11941"/>
      <point x="179.642" y="-8.11941" type="curve" smooth="yes"/>
      <point x="234.448" y="-8.11941"/>
      <point x="296.358" y="29.4328"/>
      <point x="329.851" y="77.1344" type="curve"/>
      <point x="333.911" y="80.1791" type="line"/>
      <point x="346.09" y="32.4776"/>
      <point x="398.866" y="-8.11941"/>
      <point x="454.687" y="-8.11941" type="curve" smooth="yes"/>
      <point x="545.015" y="-8.11941"/>
      <point x="636.358" y="100.478"/>
      <point x="669.851" y="244.597" type="curve" smooth="yes"/>
      <point x="701.314" y="379.582"/>
      <point x="680" y="454.687"/>
      <point x="661.732" y="516.597" type="curve"/>
      <point x="634.329" y="518.627" type="line"/>
      <point x="661.732" y="439.463"/>
      <point x="678.985" y="374.508"/>
      <point x="650.567" y="250.687" type="curve"/>
      <point x="621.135" y="115.702"/>
      <point x="535.881" y="14.209"/>
      <point x="450.627" y="11.1642" type="curve"/>
      <point x="381.612" y="14.209"/>
      <point x="343.045" y="78.1493"/>
      <point x="361.314" y="167.463" type="curve"/>
      <point x="371.463" y="201.97"/>
      <point x="392.776" y="309.552"/>
      <point x="412.06" y="380.597" type="curve"/>
      <point x="387.702" y="383.642" type="line"/>
      <point x="373.493" y="314.627"/>
      <point x="351.164" y="210.09"/>
      <point x="343.045" y="171.522" type="curve" smooth="yes"/>
      <point x="321.731" y="81.1941"/>
      <point x="253.731" y="14.209"/>
      <point x="180.657" y="11.1642" type="curve"/>
      <point x="98.4478" y="14.209"/>
      <point x="58.8657" y="113.672"/>
      <point x="88.2985" y="249.672" type="curve"/>
      <point x="117.731" y="373.493"/>
      <point x="170.508" y="449.612"/>
      <point x="226.328" y="515.582" type="curve"/>
      <point x="200.955" y="519.642" type="line"/>
      <point x="161.373" y="463.821"/>
      <point x="99.4627" y="382.627"/>
    </contour>
  </outline>
</glyph>
<glyph name="KaiSymbol" format="2">
  <advance width="573"/>
  <unicode hex="03CF"/>
  <anchor x="242" y="0" name="bottom"/>
  <anchor x="407" y="720" name="top"/>
  <outline>
    <component base="K"/>
    <contour>
      <point x="325" y="-208" type="line"/>
      <point x="353" y="-123"/>
      <point x="409" y="-34"/>
      <point x="481" y="-4" type="curve"/>
      <point x="482" y="0" type="line"/>
      <point x="450" y="0" type="line"/>
      <point x="450" y="-3" type="line"/>
      <point x="454" y="-1" type="line"/>
      <point x="391" y="-30"/>
      <point x="328" y="-120"/>
      <point x="303" y="-205" type="curve"/>
    </contour>
  </outline>
</glyph>
<glyph name="kaiSymbol" format="2">
  <advance width="532"/>
  <unicode hex="03D7"/>
  <outline>
    <component base="kappa"/>
    <contour>
      <point x="416" y="13" type="line"/>
      <point x="390" y="5" type="line"/>
      <point x="374" y="-67" type="line" smooth="yes"/>
      <point x="357" y="-136"/>
      <point x="333" y="-194"/>
      <point x="274" y="-192" type="curve"/>
      <point x="252" y="-194"/>
      <point x="234" y="-185"/>
      <point x="222" y="-179" type="curve"/>
      <point x="211" y="-203" type="line"/>
      <point x="230" y="-211"/>
      <point x="249" y="-217"/>
      <point x="273" y="-217" type="curve" smooth="yes"/>
      <point x="330" y="-217"/>
      <point x="376" y="-175"/>
      <point x="397" y="-75" type="curve"/>
    </contour>
  </outline>
</glyph>
<glyph name="E-cy" format="2">
  <advance width="719"/>
  <unicode hex="0404"/>
  <outline>
    <component base="Es-cy"/>
    <contour>
      <point x="453" y="353" type="line"/>
      <point x="456" y="373" type="line"/>
      <point x="71" y="373" type="line"/>
      <point x="68" y="353" type="line"/>
    </contour>
  </outline>
</glyph>
<glyph name="Eukrcyr" format="2">
  <advance width="719"/>
  <unicode hex="0404"/>
  <outline>
    <component base="Escyr"/>
    <contour>
      <point x="453" y="353" type="line"/>
      <point x="456" y="373" type="line"/>
      <point x="71" y="373" type="line"/>
      <point x="68" y="353" type="line"/>
    </contour>
  </outline>
</glyph>
<glyph name="Icyr" format="2">
  <advance width="719"/>
  <unicode hex="0418"/>
  <anchor x="558" y="0" name="bottomright"/>
  <anchor x="446" y="710" name="top"/>
  <outline>
    <contour>
      <point x="59" y="0" type="line"/>
      <point x="681" y="670" type="line"/>
      <point x="538" y="0" type="line"/>
      <point x="558" y="0" type="line"/>
      <point x="709" y="710" type="line"/>
      <point x="690" y="710" type="line"/>
      <point x="60" y="30" type="line"/>
      <point x="204" y="710" type="line"/>
      <point x="184" y="710" type="line"/>
      <point x="34" y="0" type="line"/>
    </contour>
  </outline>
</glyph>
<glyph name="Shacyr" format="2">
  <advance width="895"/>
  <unicode hex="0428"/>
  <outline>
    <contour>
      <point x="734" y="0" type="line"/>
      <point x="884" y="710" type="line"/>
      <point x="864" y="710" type="line"/>
      <point x="718" y="20" type="line"/>
      <point x="398" y="20" type="line"/>
      <point x="544" y="710" type="line"/>
      <point x="524" y="710" type="line"/>
      <point x="378" y="20" type="line"/>
      <point x="58" y="20" type="line"/>
      <point x="204" y="710" type="line"/>
      <point x="184" y="710" type="line"/>
      <point x="34" y="0" type="line"/>
    </contour>
  </outline>
</glyph>
<glyph name="Yucyr" format="2">
  <advance width="985"/>
  <unicode hex="042E"/>
  <anchor x="499" y="710" name="top"/>
  <outline>
    <component base="Ocyr" xOffset="229"/>
    <contour>
      <point x="54" y="0" type="line"/>
      <point x="127" y="345" type="line"/>
      <point x="300" y="345" type="line"/>
      <point x="304" y="365" type="line"/>
      <point x="131" y="365" type="line"/>
      <point x="204" y="710" type="line"/>
      <point x="184" y="710" type="line"/>
      <point x="34" y="0" type="line"/>
    </contour>
  </outline>
</glyph>
<glyph name="elcyr" format="2">
  <advance width="512"/>
  <unicode hex="043B"/>
  <outline>
    <contour>
      <point x="20" y="0" type="line"/>
      <point x="74" y="148"/>
      <point x="176" y="343"/>
      <point x="328" y="491" type="curve"/>
      <point x="406" y="0" type="line"/>
      <point x="427" y="0" type="line"/>
      <point x="344" y="519" type="line"/>
      <point x="326" y="519" type="line"/>
      <point x="161" y="355"/>
      <point x="62" y="174"/>
      <point x="0" y="0" type="curve"/>
    </contour>
  </outline>
  <guideline angle="77.6968" x="11" y="78"/>
</glyph>
<glyph name="pe-cy" format="2">
  <advance width="544"/>
  <unicode hex="043F"/>
  <anchor x="409" y="0" name="bottomright"/>
  <outline>
    <contour>
      <point x="45" y="0" type="line"/>
      <point x="151" y="500" type="line"/>
      <point x="495" y="500" type="line"/>
      <point x="389" y="0" type="line"/>
      <point x="409" y="0" type="line"/>
      <point x="519" y="519" type="line"/>
      <point x="135" y="519" type="line"/>
      <point x="25" y="0" type="line"/>
    </contour>
  </outline>
</glyph>
<glyph name="yucyr" format="2">
  <advance width="773"/>
  <unicode hex="044E"/>
  <anchor x="409" y="527" name="top"/>
  <outline>
    <component base="ocyr" xOffset="180"/>
    <contour>
      <point x="45" y="0" type="line"/>
      <point x="98" y="250" type="line"/>
      <point x="234" y="250" type="line"/>
      <point x="237" y="269" type="line"/>
      <point x="102" y="269" type="line"/>
      <point x="155" y="519" type="line"/>
      <point x="135" y="519" type="line"/>
      <point x="25" y="0" type="line"/>
    </contour>
  </outline>
</glyph>
<glyph name="izhitsacyr" format="2">
  <advance width="450"/>
  <unicode hex="0475"/>
  <outline>
    <contour>
      <point x="155" y="0" type="line"/>
      <point x="261" y="109"/>
      <point x="355" y="274"/>
      <point x="397" y="380" type="curve" smooth="yes"/>
      <point x="434" y="475"/>
      <point x="466" y="509"/>
      <point x="513" y="509" type="curve"/>
      <point x="513" y="529" type="line"/>
      <point x="456" y="529"/>
      <point x="419" y="489"/>
      <point x="379" y="388" type="curve" smooth="yes"/>
      <point x="339" y="288"/>
      <point x="257" y="140"/>
      <point x="162" y="34" type="curve"/>
      <point x="85" y="519" type="line"/>
      <point x="64" y="519" type="line"/>
      <point x="147" y="0" type="line"/>
    </contour>
  </outline>
</glyph>
<glyph name="Gheupturn-cy" format="2">
  <advance width="492"/>
  <unicode hex="0490"/>
  <outline>
    <contour>
      <point x="54" y="0" type="line"/>
      <point x="199" y="690" type="line"/>
      <point x="558" y="690" type="line"/>
      <point x="591" y="845" type="line"/>
      <point x="571" y="845" type="line"/>
      <point x="543" y="710" type="line"/>
      <point x="184" y="710" type="line"/>
      <point x="34" y="0" type="line"/>
    </contour>
  </outline>
</glyph>
<glyph name="Gestrokecyr" format="2">
  <advance width="516"/>
  <unicode hex="0492"/>
  <outline>
    <component base="Gecyr" xOffset="24"/>
    <contour>
      <point x="393" y="347" type="line"/>
      <point x="393" y="367" type="line"/>
      <point x="13" y="367" type="line"/>
      <point x="13" y="347" type="line"/>
    </contour>
  </outline>
</glyph>
<glyph name="Zhetailcyr" format="2">
  <advance width="969"/>
  <unicode hex="0496"/>
  <outline>
    <component base="Zhecyr"/>
    <contour>
      <point x="865" y="-135" type="line"/>
      <point x="897" y="20" type="line"/>
      <point x="815" y="20" type="line"/>
      <point x="811" y="0" type="line"/>
      <point x="873" y="0" type="line"/>
      <point x="845" y="-135" type="line"/>
    </contour>
  </outline>
</glyph>
<glyph name="zhedescender-cy" format="2">
  <advance width="785"/>
  <unicode hex="0497"/>
  <outline>
    <component base="zhe-cy"/>
    <contour>
      <point x="655" y="-117" type="line"/>
      <point x="683" y="19" type="line"/>
      <point x="622" y="19" type="line"/>
      <point x="622" y="0" type="line"/>
      <point x="660" y="0" type="line"/>
      <point x="635" y="-117" type="line"/>
    </contour>
  </outline>
</glyph>
<glyph name="Zetailcyr" format="2">
  <advance width="511"/>
  <unicode hex="0498"/>
  <outline>
    <component base="Zecyr"/>
    <contour>
      <point x="217" y="-135" type="line"/>
      <point x="246" y="8" type="line"/>
      <point x="226" y="8" type="line"/>
      <point x="197" y="-135" type="line"/>
    </contour>
  </outline>
</glyph>
<glyph name="zetailcyr" format="2">
  <advance width="420"/>
  <unicode hex="0499"/>
  <outline>
    <component base="zecyr"/>
    <contour>
      <point x="135" y="-117" type="line"/>
      <point x="160" y="5" type="line"/>
      <point x="141" y="5" type="line"/>
      <point x="115" y="-117" type="line"/>
    </contour>
  </outline>
</glyph>
<glyph name="katailcyr" format="2">
  <advance width="519"/>
  <unicode hex="049B"/>
  <outline>
    <component base="kacyr"/>
    <contour>
      <point x="389" y="-117" type="line"/>
      <point x="417" y="19" type="line"/>
      <point x="356" y="19" type="line"/>
      <point x="356" y="0" type="line"/>
      <point x="394" y="0" type="line"/>
      <point x="369" y="-117" type="line"/>
    </contour>
  </outline>
</glyph>
<glyph name="Kaverticalstroke-cy" format="2">
  <advance width="601"/>
  <unicode hex="049C"/>
  <anchor x="244" y="361" name="_center"/>
  <outline>
    <contour>
      <point x="595" y="710" type="line"/>
      <point x="268" y="373" type="line"/>
      <point x="133" y="373" type="line"/>
      <point x="204" y="710" type="line"/>
      <point x="184" y="710" type="line"/>
      <point x="34" y="0" type="line"/>
      <point x="54" y="0" type="line"/>
      <point x="129" y="353" type="line"/>
      <point x="270" y="353" type="line"/>
      <point x="486" y="0" type="line"/>
      <point x="511" y="0" type="line"/>
      <point x="288" y="365" type="line"/>
      <point x="623" y="710" type="line"/>
    </contour>
    <contour>
      <point x="221" y="220" type="line"/>
      <point x="286" y="502" type="line"/>
      <point x="266" y="502" type="line"/>
      <point x="201" y="220" type="line"/>
    </contour>
  </outline>
</glyph>
<glyph name="kaverticalstroke-cy" format="2">
  <advance width="462"/>
  <unicode hex="049D"/>
  <anchor x="189" y="260" name="_center"/>
  <outline>
    <contour>
      <point x="45" y="0" type="line"/>
      <point x="99" y="256" type="line"/>
      <point x="206" y="256" type="line"/>
      <point x="352" y="0" type="line"/>
      <point x="377" y="0" type="line"/>
      <point x="225" y="266" type="line"/>
      <point x="306" y="317"/>
      <point x="374" y="402"/>
      <point x="456" y="519" type="curve"/>
      <point x="431" y="519" type="line"/>
      <point x="355" y="412"/>
      <point x="287" y="323"/>
      <point x="200" y="275" type="curve"/>
      <point x="103" y="275" type="line"/>
      <point x="155" y="519" type="line"/>
      <point x="135" y="519" type="line"/>
      <point x="25" y="0" type="line"/>
    </contour>
    <contour>
      <point x="173" y="136" type="line"/>
      <point x="225" y="384" type="line"/>
      <point x="205" y="384" type="line"/>
      <point x="153" y="136" type="line"/>
    </contour>
  </outline>
</glyph>
<glyph name="Kabashkcyr" format="2">
  <advance width="680"/>
  <unicode hex="04A0"/>
  <outline>
    <component base="Kacyr" xOffset="79"/>
    <contour>
      <point x="275" y="690" type="line"/>
      <point x="279" y="710" type="line"/>
      <point x="102" y="710" type="line"/>
      <point x="98" y="690" type="line"/>
    </contour>
  </outline>
</glyph>
<glyph name="kabashkcyr" format="2">
  <advance width="538"/>
  <unicode hex="04A1"/>
  <outline>
    <component base="kacyr" xOffset="76"/>
    <contour>
      <point x="221" y="499" type="line"/>
      <point x="225" y="519" type="line"/>
      <point x="65" y="519" type="line"/>
      <point x="61" y="499" type="line"/>
    </contour>
  </outline>
</glyph>
<glyph name="Entailcyr" format="2">
  <advance width="763"/>
  <unicode hex="04A2"/>
  <anchor x="540" y="0" name="_bottomright"/>
  <outline>
    <component base="Encyr"/>
    <contour>
      <point x="614" y="-135" type="line"/>
      <point x="646" y="20" type="line"/>
      <point x="544" y="20" type="line"/>
      <point x="540" y="0" type="line"/>
      <point x="622" y="0" type="line"/>
      <point x="594" y="-135" type="line"/>
    </contour>
  </outline>
</glyph>
<glyph name="endescender-cy" format="2">
  <advance width="599"/>
  <unicode hex="04A3"/>
  <anchor x="405" y="0" name="_bottomright"/>
  <outline>
    <component base="en-cy"/>
    <contour>
      <point x="469" y="-117" type="line"/>
      <point x="497" y="19" type="line"/>
      <point x="409" y="19" type="line"/>
      <point x="405" y="0" type="line"/>
      <point x="474" y="0" type="line"/>
      <point x="449" y="-117" type="line"/>
    </contour>
  </outline>
</glyph>
<glyph name="entailcyr" format="2">
  <advance width="599"/>
  <unicode hex="04A3"/>
  <anchor x="405" y="0" name="_bottomright"/>
  <outline>
    <component base="encyr"/>
    <contour>
      <point x="469" y="-117" type="line"/>
      <point x="497" y="19" type="line"/>
      <point x="409" y="19" type="line"/>
      <point x="405" y="0" type="line"/>
      <point x="474" y="0" type="line"/>
      <point x="449" y="-117" type="line"/>
    </contour>
  </outline>
</glyph>
<glyph name="Enghe-cy" format="2">
  <advance width="979"/>
  <unicode hex="04A4"/>
  <outline>
    <component base="H"/>
    <contour>
      <point x="1046" y="690" type="line"/>
      <point x="1050" y="710" type="line"/>
      <point x="671" y="710" type="line"/>
      <point x="687" y="690" type="line"/>
    </contour>
  </outline>
</glyph>
<glyph name="engecyr" format="2">
  <advance width="769"/>
  <unicode hex="04A5"/>
  <outline>
    <component base="encyr"/>
    <contour>
      <point x="795" y="500" type="line"/>
      <point x="799" y="519" type="line"/>
      <point x="515" y="519" type="line"/>
      <point x="531" y="500" type="line"/>
    </contour>
  </outline>
</glyph>
<glyph name="Estailcyr" format="2">
  <advance width="708"/>
  <unicode hex="04AA"/>
  <outline>
    <component base="Escyr"/>
    <contour>
      <point x="300" y="-135" type="line"/>
      <point x="329" y="8" type="line"/>
      <point x="309" y="8" type="line"/>
      <point x="280" y="-135" type="line"/>
    </contour>
  </outline>
</glyph>
<glyph name="esdescender-cy" format="2">
  <advance width="514"/>
  <unicode hex="04AB"/>
  <outline>
    <component base="es-cy"/>
    <contour>
      <point x="193" y="-117" type="line"/>
      <point x="218" y="5" type="line"/>
      <point x="199" y="5" type="line"/>
      <point x="173" y="-117" type="line"/>
    </contour>
  </outline>
</glyph>
<glyph name="estailcyr" format="2">
  <advance width="514"/>
  <unicode hex="04AB"/>
  <outline>
    <component base="escyr"/>
    <contour>
      <point x="193" y="-117" type="line"/>
      <point x="218" y="5" type="line"/>
      <point x="199" y="5" type="line"/>
      <point x="173" y="-117" type="line"/>
    </contour>
  </outline>
</glyph>
<glyph name="Ustraitstroke-cy" format="2">
  <advance width="594"/>
  <unicode hex="04B0"/>
  <outline>
    <component base="Ustrait-cy"/>
    <contour>
      <point x="408" y="241" type="line"/>
      <point x="412" y="261" type="line"/>
      <point x="146" y="261" type="line"/>
      <point x="142" y="241" type="line"/>
    </contour>
  </outline>
</glyph>
<glyph name="ustraightstrokecyr" format="2">
  <advance width="451"/>
  <unicode hex="04B1"/>
  <outline>
    <component base="ustraightcyr"/>
    <contour>
      <point x="273" y="0" type="line"/>
      <point x="277" y="20" type="line"/>
      <point x="44" y="20" type="line"/>
      <point x="40" y="0" type="line"/>
    </contour>
  </outline>
</glyph>
<glyph name="Chedescender-cy" format="2">
  <advance width="689"/>
  <unicode hex="04B6"/>
  <anchor x="466" y="0" name="_bottomright"/>
  <outline>
    <component base="Che-cy"/>
    <contour>
      <point x="540" y="-135" type="line"/>
      <point x="572" y="20" type="line"/>
      <point x="470" y="20" type="line"/>
      <point x="466" y="0" type="line"/>
      <point x="548" y="0" type="line"/>
      <point x="520" y="-135" type="line"/>
    </contour>
  </outline>
</glyph>
<glyph name="Chetailcyr" format="2">
  <advance width="689"/>
  <unicode hex="04B6"/>
  <anchor x="466" y="0" name="_bottomright"/>
  <outline>
    <component base="Checyr"/>
    <contour>
      <point x="540" y="-135" type="line"/>
      <point x="572" y="20" type="line"/>
      <point x="470" y="20" type="line"/>
      <point x="466" y="0" type="line"/>
      <point x="548" y="0" type="line"/>
      <point x="520" y="-135" type="line"/>
    </contour>
  </outline>
</glyph>
<glyph name="chetailcyr" format="2">
  <advance width="527"/>
  <unicode hex="04B7"/>
  <anchor x="333" y="0" name="_bottomright"/>
  <outline>
    <component base="checyr"/>
    <contour>
      <point x="397" y="-117" type="line"/>
      <point x="425" y="19" type="line"/>
      <point x="337" y="19" type="line"/>
      <point x="333" y="0" type="line"/>
      <point x="402" y="0" type="line"/>
      <point x="377" y="-117" type="line"/>
    </contour>
  </outline>
</glyph>
<glyph name="Cheverticalstroke-cy" format="2">
  <advance width="647"/>
  <unicode hex="04B8"/>
  <anchor x="323" y="294" name="_center"/>
  <outline>
    <component base="Che-cy"/>
    <contour>
      <point x="300" y="153" type="line"/>
      <point x="365" y="435" type="line"/>
      <point x="345" y="435" type="line"/>
      <point x="280" y="153" type="line"/>
    </contour>
  </outline>
</glyph>
<glyph name="chevertcyr" format="2">
  <advance width="479"/>
  <unicode hex="04B9"/>
  <anchor x="233" y="230" name="_center"/>
  <outline>
    <contour>
      <point x="344" y="0" type="line"/>
      <point x="454" y="519" type="line"/>
      <point x="433" y="519" type="line"/>
      <point x="378" y="261" type="line"/>
      <point x="344" y="241"/>
      <point x="277" y="225"/>
      <point x="218" y="225" type="curve" smooth="yes"/>
      <point x="116" y="225"/>
      <point x="75" y="274"/>
      <point x="99" y="390" type="curve"/>
      <point x="130" y="519" type="line"/>
      <point x="108" y="519" type="line"/>
      <point x="77" y="388" type="line"/>
      <point x="51" y="263"/>
      <point x="100" y="206"/>
      <point x="219" y="206" type="curve" smooth="yes"/>
      <point x="273" y="206"/>
      <point x="325" y="217"/>
      <point x="374" y="239" type="curve"/>
      <point x="323" y="0" type="line"/>
    </contour>
    <contour>
      <point x="217" y="106" type="line"/>
      <point x="269" y="354" type="line"/>
      <point x="249" y="354" type="line"/>
      <point x="197" y="106" type="line"/>
    </contour>
  </outline>
</glyph>
<glyph name="Chekhakascyr" format="2">
  <advance width="647"/>
  <unicode hex="04CB"/>
  <outline>
    <component base="Checyr"/>
    <contour>
      <point x="376" y="-135" type="line"/>
      <point x="404" y="0" type="line"/>
      <point x="486" y="0" type="line"/>
      <point x="490" y="20" type="line"/>
      <point x="388" y="20" type="line"/>
      <point x="356" y="-135" type="line"/>
    </contour>
  </outline>
</glyph>
<glyph name="chekhakascyr" format="2">
  <advance width="545"/>
  <unicode hex="04CC"/>
  <outline>
    <component base="checyr" xOffset="30"/>
    <contour>
      <point x="294" y="-135" type="line"/>
      <point x="322" y="0" type="line"/>
      <point x="384" y="0" type="line"/>
      <point x="388" y="20" type="line"/>
      <point x="306" y="20" type="line"/>
      <point x="274" y="-135" type="line"/>
    </contour>
  </outline>
</glyph>
<glyph name="Obarcyr" format="2">
  <advance width="726"/>
  <unicode hex="04E8"/>
  <outline>
    <component base="Ocyr"/>
    <contour>
      <point x="705" y="353" type="line"/>
      <point x="709" y="373" type="line"/>
      <point x="72" y="373" type="line"/>
      <point x="68" y="353" type="line"/>
    </contour>
  </outline>
</glyph>
<glyph name="obarcyr" format="2">
  <advance width="582"/>
  <unicode hex="04E9"/>
  <outline>
    <component base="ocyr" xOffset="-11"/>
    <contour>
      <point x="518" y="256" type="line"/>
      <point x="522" y="275" type="line"/>
      <point x="51" y="275" type="line"/>
      <point x="47" y="256" type="line"/>
    </contour>
  </outline>
</glyph>
<glyph name="Gedescender-cy" format="2">
  <advance width="492"/>
  <unicode hex="04F6"/>
  <anchor x="34" y="0" name="_bottomright"/>
  <outline>
    <component base="Ge-cy"/>
    <contour>
      <point x="108" y="-135" type="line"/>
      <point x="140" y="20" type="line"/>
      <point x="38" y="20" type="line"/>
      <point x="34" y="0" type="line"/>
      <point x="116" y="0" type="line"/>
      <point x="88" y="-135" type="line"/>
    </contour>
  </outline>
</glyph>
<glyph name="Getailcyr" format="2">
  <advance width="492"/>
  <unicode hex="04F6"/>
  <anchor x="34" y="0" name="_bottomright"/>
  <outline>
    <component base="Gecyr"/>
    <contour>
      <point x="108" y="-135" type="line"/>
      <point x="140" y="20" type="line"/>
      <point x="38" y="20" type="line"/>
      <point x="34" y="0" type="line"/>
      <point x="116" y="0" type="line"/>
      <point x="88" y="-135" type="line"/>
    </contour>
  </outline>
</glyph>
<glyph name="gedescender-cy" format="2">
  <advance width="471"/>
  <unicode hex="04F7"/>
  <outline>
    <component base="ge-cy"/>
    <contour>
      <point x="367" y="-69" type="line"/>
      <point x="395" y="67" type="line"/>
      <point x="372" y="48" type="line"/>
      <point x="347" y="-69" type="line"/>
    </contour>
  </outline>
</glyph>
<glyph name="getailcyr" format="2">
  <advance width="471"/>
  <unicode hex="04F7"/>
  <outline>
    <component base="gecyr"/>
    <contour>
      <point x="367" y="-69" type="line"/>
      <point x="395" y="67" type="line"/>
      <point x="372" y="48" type="line"/>
      <point x="347" y="-69" type="line"/>
    </contour>
  </outline>
</glyph>
<glyph name="Petailcyr" format="2">
  <advance width="763"/>
  <unicode hex="0524"/>
  <anchor x="540" y="0" name="_bottomright"/>
  <outline>
    <component base="Pecyr"/>
    <contour>
      <point x="614" y="-135" type="line"/>
      <point x="646" y="20" type="line"/>
      <point x="544" y="20" type="line"/>
      <point x="540" y="0" type="line"/>
      <point x="622" y="0" type="line"/>
      <point x="594" y="-135" type="line"/>
    </contour>
  </outline>
</glyph>
<glyph name="petailcyr" format="2">
  <advance width="595"/>
  <unicode hex="0525"/>
  <anchor x="401" y="0" name="_bottomright"/>
  <outline>
    <component base="pecyr"/>
    <contour>
      <point x="465" y="-117" type="line"/>
      <point x="493" y="19" type="line"/>
      <point x="405" y="19" type="line"/>
      <point x="401" y="0" type="line"/>
      <point x="470" y="0" type="line"/>
      <point x="445" y="-117" type="line"/>
    </contour>
  </outline>
</glyph>
<glyph name="quoteleft" format="2">
  <advance width="166"/>
  <unicode hex="2018"/>
  <outline>
    <contour>
      <point x="93.0945" y="565" type="line"/>
      <point x="129.094" y="565" type="line"/>
      <point x="180.915" y="710" type="line"/>
      <point x="156.915" y="710" type="line"/>
    </contour>
  </outline>
</glyph>
<glyph name="quoteright" format="2">
  <advance width="166"/>
  <unicode hex="2019"/>
  <outline>
    <contour>
      <point x="106.094" y="565" type="line"/>
      <point x="130.094" y="565" type="line"/>
      <point x="193.915" y="710" type="line"/>
      <point x="157.915" y="710" type="line"/>
    </contour>
  </outline>
</glyph>
<glyph name="quotedblleft" format="2">
  <advance width="332"/>
  <unicode hex="201C"/>
  <outline>
    <contour>
      <point x="143" y="565" type="line"/>
      <point x="179" y="565" type="line"/>
      <point x="231" y="710" type="line"/>
      <point x="207" y="710" type="line"/>
    </contour>
    <contour>
      <point x="209" y="565" type="line"/>
      <point x="245" y="565" type="line"/>
      <point x="297" y="710" type="line"/>
      <point x="273" y="710" type="line"/>
    </contour>
  </outline>
</glyph>
<glyph name="quotedblbase" format="2">
  <advance width="330"/>
  <unicode hex="201E"/>
  <outline>
    <contour>
      <point x="112" y="-75" type="line"/>
      <point x="176" y="70" type="line"/>
      <point x="140" y="70" type="line"/>
      <point x="88" y="-75" type="line"/>
    </contour>
    <contour>
      <point x="178" y="-75" type="line"/>
      <point x="242" y="70" type="line"/>
      <point x="206" y="70" type="line"/>
      <point x="154" y="-75" type="line"/>
    </contour>
  </outline>
</glyph>
<glyph name="colonsign" format="2">
  <advance width="704"/>
  <unicode hex="20A1"/>
  <outline>
    <component base="C"/>
    <contour>
      <point x="572" y="835" type="line"/>
      <point x="552" y="835" type="line"/>
      <point x="511" y="703" type="line"/>
      <point x="531" y="703" type="line"/>
    </contour>
    <contour>
      <point x="421" y="703" type="line"/>
      <point x="441" y="703" type="line"/>
      <point x="482" y="835" type="line"/>
      <point x="462" y="835" type="line"/>
    </contour>
    <contour>
      <point x="345" y="4" type="line"/>
      <point x="325" y="4" type="line"/>
      <point x="287" y="-120" type="line"/>
      <point x="307" y="-120" type="line"/>
    </contour>
    <contour>
      <point x="197" y="-120" type="line"/>
      <point x="217" y="-120" type="line"/>
      <point x="255" y="4" type="line"/>
      <point x="235" y="4" type="line"/>
    </contour>
  </outline>
</glyph>
<glyph name="won" format="2">
  <advance width="1020"/>
  <unicode hex="20A9"/>
  <outline>
    <component base="W" xOffset="26"/>
    <contour>
      <point x="70" y="439" type="line"/>
      <point x="1002" y="439" type="line"/>
      <point x="1007" y="459" type="line"/>
      <point x="74" y="459" type="line"/>
    </contour>
    <contour>
      <point x="51" y="349" type="line"/>
      <point x="983" y="349" type="line"/>
      <point x="987" y="369" type="line"/>
      <point x="55" y="369" type="line"/>
    </contour>
  </outline>
</glyph>
<glyph name="cedi" format="2">
  <advance width="663"/>
  <unicode hex="20B5"/>
  <outline>
    <component base="C"/>
    <contour>
      <point x="275" y="-93" type="line"/>
      <point x="293" y="-93" type="line"/>
      <point x="313" y="0" type="line"/>
      <point x="295" y="1" type="line"/>
    </contour>
    <contour>
      <point x="447" y="702" type="line"/>
      <point x="465" y="704" type="line"/>
      <point x="489" y="815" type="line"/>
      <point x="471" y="815" type="line"/>
    </contour>
  </outline>
</glyph>
<glyph name="Elcyr.loclBGR" format="2">
  <advance width="647"/>
  <outline>
    <contour>
      <point x="-17" y="0" type="line"/>
      <point x="409" y="681" type="line"/>
      <point x="544" y="0" type="line"/>
      <point x="566" y="0" type="line"/>
      <point x="424" y="710" type="line"/>
      <point x="406" y="710" type="line"/>
      <point x="-39" y="0" type="line"/>
    </contour>
  </outline>
</glyph>
<glyph name="Estailcyr.loclBSH" format="2">
  <advance width="708"/>
  <outline>
    <component base="Escyr"/>
    <contour>
      <point x="280" y="-135" type="line"/>
      <point x="309" y="8" type="line"/>
      <point x="289" y="8" type="line"/>
      <point x="260" y="-135" type="line"/>
    </contour>
  </outline>
</glyph>
<glyph name="caroncomb.alt" format="2">
  <advance width="198"/>
  <anchor x="82" y="519" name="_topright"/>
  <anchor x="33" y="0" name="_bottom"/>
  <outline>
    <contour>
      <point x="174" y="630" type="line"/>
      <point x="228" y="729" type="line"/>
      <point x="192" y="729" type="line"/>
      <point x="150" y="630" type="line"/>
    </contour>
  </outline>
</glyph>
<glyph name="eight.tnum" format="2">
  <advance width="670"/>
  <outline>
    <contour>
      <point x="515" y="220" type="curve" smooth="yes"/>
      <point x="515" y="298"/>
      <point x="465" y="358"/>
      <point x="395" y="381" type="curve"/>
      <point x="481" y="411"/>
      <point x="564" y="473"/>
      <point x="564" y="569" type="curve" smooth="yes"/>
      <point x="564" y="659"/>
      <point x="484" y="710"/>
      <point x="396" y="710" type="curve" smooth="yes"/>
      <point x="285" y="710"/>
      <point x="155" y="639"/>
      <point x="155" y="515" type="curve" smooth="yes"/>
      <point x="155" y="450"/>
      <point x="199" y="403"/>
      <point x="255" y="381" type="curve"/>
      <point x="163" y="356"/>
      <point x="55" y="274"/>
      <point x="55" y="159" type="curve" smooth="yes"/>
      <point x="55" y="70"/>
      <point x="121" y="-7"/>
      <point x="240" y="-7" type="curve" smooth="yes"/>
      <point x="376" y="-7"/>
      <point x="515" y="84"/>
    </contour>
    <contour>
      <point x="495" y="219" type="curve" smooth="yes"/>
      <point x="495" y="93"/>
      <point x="357" y="10"/>
      <point x="248" y="10" type="curve" smooth="yes"/>
      <point x="163" y="10"/>
      <point x="75" y="65"/>
      <point x="75" y="161" type="curve" smooth="yes"/>
      <point x="75" y="286"/>
      <point x="213" y="371"/>
      <point x="322" y="371" type="curve" smooth="yes"/>
      <point x="407" y="371"/>
      <point x="495" y="315"/>
    </contour>
    <contour>
      <point x="175" y="517" type="curve" smooth="yes"/>
      <point x="175" y="623"/>
      <point x="287" y="690"/>
      <point x="390" y="690" type="curve" smooth="yes"/>
      <point x="472" y="690"/>
      <point x="544" y="644"/>
      <point x="544" y="565" type="curve" smooth="yes"/>
      <point x="544" y="455"/>
      <point x="419" y="391"/>
      <point x="327" y="391" type="curve" smooth="yes"/>
      <point x="253" y="391"/>
      <point x="175" y="436"/>
    </contour>
  </outline>
</glyph>
<glyph name="four.tnum" format="2">
  <advance width="670"/>
  <outline>
    <contour>
      <point x="399" y="0" type="line"/>
      <point x="444" y="211" type="line"/>
      <point x="528" y="211" type="line"/>
      <point x="532" y="231" type="line"/>
      <point x="448" y="231" type="line"/>
      <point x="550" y="710" type="line"/>
      <point x="536" y="710" type="line"/>
      <point x="63" y="228" type="line"/>
      <point x="59" y="211" type="line"/>
      <point x="424" y="211" type="line"/>
      <point x="379" y="0" type="line"/>
    </contour>
    <contour>
      <point x="91" y="231" type="line"/>
      <point x="522" y="673" type="line"/>
      <point x="428" y="231" type="line"/>
    </contour>
  </outline>
</glyph>
<glyph name="gecyr.loclSRB" format="2">
  <advance width="182"/>
  <anchor x="155" y="665" name="top"/>
  <outline>
    <contour>
      <point x="40" y="2" type="curve"/>
      <point x="43" y="1"/>
      <point x="47" y="0"/>
      <point x="52" y="0" type="curve"/>
      <point x="57" y="20" type="line"/>
      <point x="39" y="20"/>
      <point x="45" y="39"/>
      <point x="51" y="67" type="curve" smooth="yes"/>
      <point x="147" y="519" type="line"/>
      <point x="127" y="519" type="line"/>
      <point x="35" y="82" type="line" smooth="yes"/>
      <point x="26" y="39"/>
      <point x="17" y="9"/>
    </contour>
    <contour>
      <point x="294" y="686" type="line"/>
      <point x="298" y="706" type="line"/>
      <point x="32" y="706" type="line"/>
      <point x="28" y="686" type="line"/>
    </contour>
  </outline>
</glyph>
<glyph name="guarani" format="2">
  <advance width="688"/>
  <outline>
    <component base="G"/>
    <contour>
      <point x="258" y="-93" type="line"/>
      <point x="276" y="-93" type="line"/>
      <point x="296" y="0" type="line"/>
      <point x="278" y="1" type="line"/>
    </contour>
    <contour>
      <point x="427" y="702" type="line"/>
      <point x="445" y="704" type="line"/>
      <point x="469" y="815" type="line"/>
      <point x="451" y="815" type="line"/>
    </contour>
  </outline>
</glyph>
<glyph name="j.ss04" format="2">
  <advance width="182"/>
  <outline>
    <component base="dotaccentcomb" xOffset="45"/>
    <contour>
      <point x="-28" y="-213" type="line"/>
      <point x="-8" y="-213" type="line"/>
      <point x="147" y="517" type="line"/>
      <point x="127" y="517" type="line"/>
    </contour>
  </outline>
</glyph>
<glyph name="kacyr.loclBGR" format="2">
  <advance width="462"/>
  <anchor x="352" y="0" name="bottomright"/>
  <anchor x="231" y="260" name="center"/>
  <anchor x="266" y="519" name="top"/>
  <outline>
    <contour>
      <point x="25" y="0" type="line"/>
      <point x="45" y="0" type="line"/>
      <point x="99" y="256" type="line"/>
      <point x="206" y="256" type="line"/>
      <point x="352" y="0" type="line"/>
      <point x="377" y="0" type="line"/>
      <point x="225" y="266" type="line"/>
      <point x="306" y="317"/>
      <point x="374" y="402"/>
      <point x="456" y="519" type="curve"/>
      <point x="431" y="519" type="line"/>
      <point x="355" y="412"/>
      <point x="287" y="323"/>
      <point x="200" y="275" type="curve"/>
      <point x="103" y="275" type="line"/>
      <point x="200" y="730" type="line"/>
      <point x="180" y="730" type="line"/>
    </contour>
  </outline>
</glyph>
<glyph name="nine.tnum" format="2">
  <advance width="670"/>
  <outline>
    <contour>
      <point x="270" y="-7" type="curve" smooth="yes"/>
      <point x="178" y="-7"/>
      <point x="114" y="50"/>
      <point x="106" y="140" type="curve"/>
      <point x="126" y="147" type="line"/>
      <point x="133" y="67"/>
      <point x="192" y="13"/>
      <point x="274" y="13" type="curve" smooth="yes"/>
      <point x="422" y="13"/>
      <point x="544" y="172"/>
      <point x="586" y="400" type="curve"/>
      <point x="536" y="296"/>
      <point x="427" y="233"/>
      <point x="319" y="233" type="curve" smooth="yes"/>
      <point x="209" y="233"/>
      <point x="135" y="321"/>
      <point x="135" y="432" type="curve" smooth="yes"/>
      <point x="135" y="586"/>
      <point x="278" y="718"/>
      <point x="426" y="718" type="curve" smooth="yes"/>
      <point x="538" y="718"/>
      <point x="614" y="637"/>
      <point x="614" y="506" type="curve" smooth="yes"/>
      <point x="614" y="247"/>
      <point x="474" y="-7"/>
    </contour>
    <contour>
      <point x="327" y="253" type="curve" smooth="yes"/>
      <point x="459" y="253"/>
      <point x="592" y="377"/>
      <point x="592" y="514" type="curve" smooth="yes"/>
      <point x="592" y="616"/>
      <point x="521" y="698"/>
      <point x="420" y="698" type="curve" smooth="yes"/>
      <point x="288" y="698"/>
      <point x="156" y="577"/>
      <point x="156" y="438" type="curve" smooth="yes"/>
      <point x="156" y="336"/>
      <point x="227" y="253"/>
    </contour>
  </outline>
</glyph>
<glyph name="one.tnum" format="2">
  <advance width="670"/>
  <outline>
    <contour>
      <point x="-28" y="0" type="line"/>
      <point x="538" y="0" type="line"/>
      <point x="542" y="20" type="line"/>
      <point x="272" y="20" type="line"/>
      <point x="421" y="720" type="line"/>
      <point x="400" y="720" type="line"/>
      <point x="398" y="716"/>
      <point x="298" y="621"/>
      <point x="232" y="621" type="curve"/>
      <point x="228" y="601" type="line"/>
      <point x="279" y="601"/>
      <point x="366" y="656"/>
      <point x="393" y="687" type="curve"/>
      <point x="252" y="20" type="line"/>
      <point x="-24" y="20" type="line"/>
    </contour>
  </outline>
</glyph>
<glyph name="six.tnum" format="2">
  <advance width="670"/>
  <outline>
    <contour>
      <point x="319" y="-10" type="curve" smooth="yes"/>
      <point x="207" y="-10"/>
      <point x="131" y="71"/>
      <point x="131" y="202" type="curve" smooth="yes"/>
      <point x="131" y="461"/>
      <point x="271" y="715"/>
      <point x="475" y="715" type="curve" smooth="yes"/>
      <point x="567" y="715"/>
      <point x="631" y="658"/>
      <point x="639" y="568" type="curve"/>
      <point x="619" y="561" type="line"/>
      <point x="612" y="641"/>
      <point x="553" y="695"/>
      <point x="471" y="695" type="curve" smooth="yes"/>
      <point x="323" y="695"/>
      <point x="201" y="536"/>
      <point x="159" y="308" type="curve"/>
      <point x="209" y="412"/>
      <point x="318" y="475"/>
      <point x="426" y="475" type="curve" smooth="yes"/>
      <point x="536" y="475"/>
      <point x="610" y="387"/>
      <point x="610" y="276" type="curve" smooth="yes"/>
      <point x="610" y="122"/>
      <point x="467" y="-10"/>
    </contour>
    <contour>
      <point x="325" y="10" type="curve" smooth="yes"/>
      <point x="457" y="10"/>
      <point x="589" y="131"/>
      <point x="589" y="270" type="curve" smooth="yes"/>
      <point x="589" y="372"/>
      <point x="518" y="455"/>
      <point x="418" y="455" type="curve" smooth="yes"/>
      <point x="286" y="455"/>
      <point x="153" y="331"/>
      <point x="153" y="194" type="curve" smooth="yes"/>
      <point x="153" y="92"/>
      <point x="224" y="10"/>
    </contour>
  </outline>
</glyph>
<glyph name="three.tnum" format="2">
  <advance width="670"/>
  <outline>
    <contour>
      <point x="234" y="-9" type="curve" smooth="yes"/>
      <point x="370" y="-9"/>
      <point x="482" y="90"/>
      <point x="482" y="225" type="curve" smooth="yes"/>
      <point x="482" y="303"/>
      <point x="440" y="363"/>
      <point x="367" y="374" type="curve"/>
      <point x="489" y="387"/>
      <point x="543" y="466"/>
      <point x="543" y="565" type="curve" smooth="yes"/>
      <point x="543" y="651"/>
      <point x="482" y="714"/>
      <point x="387" y="714" type="curve" smooth="yes"/>
      <point x="300" y="714"/>
      <point x="215" y="664"/>
      <point x="173" y="588" type="curve"/>
      <point x="189" y="581" type="line"/>
      <point x="229" y="649"/>
      <point x="303" y="694"/>
      <point x="383" y="694" type="curve" smooth="yes"/>
      <point x="467" y="694"/>
      <point x="522" y="640"/>
      <point x="522" y="560" type="curve" smooth="yes"/>
      <point x="522" y="453"/>
      <point x="445" y="385"/>
      <point x="315" y="385" type="curve" smooth="yes"/>
      <point x="245" y="385" type="line"/>
      <point x="241" y="365" type="line"/>
      <point x="310" y="365" type="line" smooth="yes"/>
      <point x="408" y="365"/>
      <point x="463" y="311"/>
      <point x="463" y="226" type="curve" smooth="yes"/>
      <point x="463" y="101"/>
      <point x="368" y="11"/>
      <point x="240" y="11" type="curve" smooth="yes"/>
      <point x="152" y="11"/>
      <point x="90" y="57"/>
      <point x="83" y="126" type="curve"/>
      <point x="63" y="119" type="line"/>
      <point x="73" y="41"/>
      <point x="140" y="-9"/>
    </contour>
  </outline>
</glyph>
<glyph name="tonos.cap" format="2">
  <advance width="125"/>
  <anchor x="78" y="624" name="_topleft"/>
  <outline>
    <contour>
      <point x="238" y="842" type="line"/>
      <point x="90" y="645" type="line"/>
      <point x="98" y="631" type="line"/>
      <point x="253" y="828" type="line"/>
    </contour>
  </outline>
</glyph>
<glyph name="two.tnum" format="2">
  <advance width="670"/>
  <outline>
    <contour>
      <point x="-6" y="0" type="curve"/>
      <point x="425" y="0" type="line"/>
      <point x="429" y="20" type="line"/>
      <point x="18" y="20" type="line"/>
      <point x="31" y="98"/>
      <point x="72" y="229"/>
      <point x="258" y="301" type="curve" smooth="yes"/>
      <point x="365" y="343"/>
      <point x="540" y="378"/>
      <point x="540" y="559" type="curve" smooth="yes"/>
      <point x="540" y="642"/>
      <point x="491" y="719"/>
      <point x="377" y="719" type="curve" smooth="yes"/>
      <point x="226" y="719"/>
      <point x="129" y="596"/>
      <point x="129" y="593" type="curve"/>
      <point x="143" y="583" type="line"/>
      <point x="177" y="623"/>
      <point x="254" y="699"/>
      <point x="371" y="699" type="curve" smooth="yes"/>
      <point x="476" y="699"/>
      <point x="519" y="631"/>
      <point x="519" y="557" type="curve" smooth="yes"/>
      <point x="519" y="393"/>
      <point x="367" y="364"/>
      <point x="253" y="319" type="curve" smooth="yes"/>
      <point x="128" y="270"/>
      <point x="20" y="184"/>
    </contour>
  </outline>
</glyph>
<glyph name="yucyr.loclBGR" format="2">
  <advance width="758"/>
  <outline>
    <component base="ocyr" xOffset="165"/>
    <contour>
      <point x="37" y="0" type="line"/>
      <point x="90" y="250" type="line"/>
      <point x="226" y="250" type="line"/>
      <point x="229" y="269" type="line"/>
      <point x="94" y="269" type="line"/>
      <point x="192" y="730" type="line"/>
      <point x="172" y="730" type="line"/>
      <point x="17" y="0" type="line"/>
    </contour>
  </outline>
</glyph>
<glyph name="zero.tnum" format="2">
  <advance width="670"/>
  <outline>
    <contour>
      <point x="272" y="-10" type="curve" smooth="yes"/>
      <point x="465" y="-10"/>
      <point x="626" y="227"/>
      <point x="626" y="427" type="curve" smooth="yes"/>
      <point x="626" y="559"/>
      <point x="568" y="710"/>
      <point x="425" y="710" type="curve" smooth="yes"/>
      <point x="233" y="710"/>
      <point x="70" y="471"/>
      <point x="70" y="272" type="curve" smooth="yes"/>
      <point x="70" y="138"/>
      <point x="130" y="-10"/>
    </contour>
    <contour>
      <point x="276" y="10" type="curve" smooth="yes"/>
      <point x="146" y="10"/>
      <point x="92" y="131"/>
      <point x="92" y="263" type="curve" smooth="yes"/>
      <point x="92" y="438"/>
      <point x="230" y="690"/>
      <point x="421" y="690" type="curve"/>
      <point x="546" y="690"/>
      <point x="606" y="556"/>
      <point x="606" y="424" type="curve" smooth="yes"/>
      <point x="606" y="256"/>
      <point x="467" y="10"/>
    </contour>
  </outline>
</glyph>
